<?xml version="1.0" standalone="no"?>
<!DOCTYPE svg PUBLIC "-//W3C//DTD SVG 20010904//EN"
 "http://www.w3.org/TR/2001/REC-SVG-20010904/DTD/svg10.dtd">
<svg version="1.0" xmlns="http://www.w3.org/2000/svg"
 width="512.000000pt" height="512.000000pt" viewBox="0 0 512.000000 512.000000"
 preserveAspectRatio="xMidYMid meet">

<g transform="translate(0.000000,512.000000) scale(0.100000,-0.100000)"
fill="#000000" stroke="none">
<path d="M1300 4953 c-190 -21 -408 -101 -565 -206 -83 -56 -108 -77 -203
-170 -172 -170 -294 -397 -348 -647 -14 -65 -18 -131 -19 -277 0 -178 1 -193
21 -219 39 -53 71 -69 134 -69 63 0 95 16 134 69 19 25 22 47 28 214 4 138 11
207 26 262 93 350 344 602 701 703 76 22 77 22 1310 25 1064 2 1246 0 1322
-13 380 -65 686 -355 776 -735 17 -70 18 -163 18 -1330 0 -1167 -1 -1260 -18
-1330 -72 -306 -293 -565 -578 -679 -176 -70 -77 -66 -1474 -66 -1184 0 -1265
1 -1335 18 -358 87 -621 344 -723 706 -21 74 -21 98 -27 823 -5 734 -5 747
-26 774 -39 53 -71 69 -134 69 -63 0 -95 -16 -134 -69 -21 -27 -21 -36 -21
-779 0 -697 1 -758 19 -837 113 -515 491 -893 1006 -1006 81 -18 153 -19 1370
-19 1217 0 1289 1 1370 19 515 113 893 491 1006 1006 18 81 19 153 19 1370 0
1428 4 1338 -67 1540 -132 375 -435 673 -803 794 -197 64 -96 60 -1485 61
-696 1 -1281 0 -1300 -2z"/>
<path d="M2495 3586 c-37 -17 -70 -52 -84 -89 -7 -18 -11 -162 -11 -402 l0
-374 -389 -3 c-376 -3 -391 -4 -417 -24 -53 -39 -69 -71 -69 -134 0 -63 16
-95 69 -134 26 -20 41 -21 416 -24 l389 -3 3 -389 c3 -375 4 -390 24 -416 39
-53 71 -69 134 -69 63 0 95 16 134 69 20 26 21 41 24 416 l3 389 389 3 c375 3
390 4 416 24 53 39 69 71 69 134 0 63 -16 95 -69 134 -26 20 -41 21 -416 24
l-389 3 -3 389 c-3 375 -4 390 -24 416 -11 15 -32 37 -46 47 -34 25 -113 32
-153 13z"/>
</g>
</svg>
