<?xml version="1.0" standalone="no"?>
<!DOCTYPE svg PUBLIC "-//W3C//DTD SVG 20010904//EN"
 "http://www.w3.org/TR/2001/REC-SVG-20010904/DTD/svg10.dtd">
<svg version="1.0" xmlns="http://www.w3.org/2000/svg"
 width="512.000000pt" height="512.000000pt" viewBox="0 0 512.000000 512.000000"
 preserveAspectRatio="xMidYMid meet">

<g transform="translate(0.000000,512.000000) scale(0.100000,-0.100000)"
fill="#000000" stroke="none">
<path d="M1020 4795 l0 -115 1045 0 1045 0 0 -520 c0 -453 2 -525 16 -551 30
-59 33 -59 599 -59 l515 0 -2 -1497 c-3 -1400 -4 -1500 -20 -1530 -10 -17 -32
-42 -50 -55 l-33 -23 -1557 -3 -1558 -2 0 -120 0 -120 1573 2 1572 3 58 23
c81 33 168 116 209 200 l33 67 3 1585 c2 1058 0 1597 -7 1620 -8 27 -143 167
-598 623 l-588 587 -1128 0 -1127 0 0 -115z m2685 -645 l360 -360 -363 0 -362
0 0 360 c0 198 1 360 3 360 1 0 164 -162 362 -360z"/>
<path d="M2437 2580 c-387 -44 -832 -319 -1166 -720 -87 -105 -76 -140 108
-334 289 -303 635 -513 961 -583 115 -24 333 -24 450 1 320 68 636 260 935
567 157 161 176 187 177 238 1 54 -26 94 -155 228 -417 434 -887 650 -1310
603z m303 -244 c212 -45 437 -165 660 -353 95 -81 230 -216 230 -232 0 -18
-230 -230 -333 -307 -292 -219 -572 -315 -834 -284 -212 25 -444 130 -678 308
-76 58 -295 271 -295 287 0 20 218 225 327 307 195 146 370 233 554 273 84 18
286 18 369 1z"/>
<path d="M2453 2185 c-131 -36 -236 -122 -295 -242 -32 -65 -33 -72 -33 -188
0 -117 1 -122 34 -190 137 -279 496 -341 714 -124 172 172 173 454 2 626 -112
111 -276 157 -422 118z m210 -247 c143 -79 141 -295 -2 -367 -55 -28 -97 -34
-151 -21 -102 24 -167 116 -158 224 13 154 175 239 311 164z"/>
</g>
</svg>
