<?xml version="1.0" standalone="no"?>
<!DOCTYPE svg PUBLIC "-//W3C//DTD SVG 20010904//EN"
 "http://www.w3.org/TR/2001/REC-SVG-20010904/DTD/svg10.dtd">
<svg version="1.0" xmlns="http://www.w3.org/2000/svg"
 width="512.000000pt" height="512.000000pt" viewBox="0 0 512.000000 512.000000"
 preserveAspectRatio="xMidYMid meet">

<g transform="translate(0.000000,512.000000) scale(0.100000,-0.100000)"
fill="#000000" stroke="none">
<path d="M1674 4840 c-519 -30 -804 -121 -1022 -325 -164 -153 -263 -343 -317
-608 -43 -213 -56 -384 -62 -797 l-5 -385 23 -35 c34 -50 106 -84 160 -75 54
9 116 64 128 114 5 20 12 194 15 386 5 357 14 484 42 659 62 379 219 576 534
669 241 72 340 79 1255 84 806 5 1062 -2 1287 -33 439 -61 652 -226 743 -579
31 -119 43 -198 59 -391 10 -131 17 -168 34 -195 59 -95 198 -99 263 -8 23 32
24 41 22 164 -2 147 -32 369 -67 507 -102 392 -352 652 -730 762 -98 28 -279
60 -441 77 -132 14 -1708 21 -1921 9z"/>
<path d="M4616 2698 c-22 -13 -49 -39 -60 -58 -20 -34 -21 -55 -27 -510 -7
-477 -19 -676 -54 -838 -89 -423 -300 -605 -770 -667 -168 -22 -424 -35 -695
-35 -135 0 -261 -5 -282 -10 -49 -14 -104 -76 -113 -129 -9 -53 25 -126 74
-158 33 -22 41 -23 306 -23 826 0 1202 84 1464 326 186 173 288 381 340 697
36 215 42 332 48 827 l5 485 -24 34 c-53 78 -139 102 -212 59z"/>
<path d="M2285 2491 c-27 -13 -270 -249 -760 -740 l-720 -721 -5 474 c-5 460
-6 475 -26 502 -39 53 -71 69 -134 69 -63 0 -95 -16 -134 -69 -21 -27 -21 -36
-21 -726 0 -690 0 -699 21 -726 11 -15 33 -37 48 -48 27 -21 36 -21 726 -21
690 0 699 0 726 21 53 39 69 71 69 134 0 63 -16 95 -69 134 -27 20 -41 21
-504 24 l-476 3 731 732 c797 797 768 764 744 853 -13 50 -62 101 -109 114
-50 13 -61 13 -107 -9z"/>
</g>
</svg>
