<?xml version="1.0" standalone="no"?>
<!DOCTYPE svg PUBLIC "-//W3C//DTD SVG 20010904//EN"
 "http://www.w3.org/TR/2001/REC-SVG-20010904/DTD/svg10.dtd">
<svg version="1.0" xmlns="http://www.w3.org/2000/svg"
 width="512.000000pt" height="512.000000pt" viewBox="0 0 512.000000 512.000000"
 preserveAspectRatio="xMidYMid meet">

<g transform="translate(0.000000,512.000000) scale(0.100000,-0.100000)"
fill="#000000" stroke="none">
<path d="M3547 4674 c-417 -93 -716 -417 -766 -829 -6 -51 -11 -256 -11 -472
l0 -382 -937 -3 c-882 -3 -941 -4 -985 -21 -67 -26 -141 -97 -175 -165 l-28
-57 0 -935 0 -935 25 -50 c31 -64 92 -124 155 -156 l50 -24 1150 0 1150 0 57
28 c62 30 115 83 150 149 l23 43 3 925 c2 660 0 936 -8 965 -16 56 -74 138
-120 170 -56 39 -112 55 -208 62 l-83 6 3 446 c4 494 3 480 75 626 92 187 277
337 483 392 88 24 281 23 370 -1 210 -57 393 -207 485 -401 69 -144 68 -137
74 -700 5 -398 9 -515 19 -533 18 -31 76 -55 113 -47 16 4 40 20 54 37 l26 31
-3 531 -3 531 -28 88 c-103 330 -339 566 -664 663 -113 34 -337 43 -446 18z
m-381 -1938 l34 -34 0 -881 c0 -978 3 -928 -65 -957 -29 -12 -203 -14 -1111
-14 -1193 0 -1126 -4 -1158 65 -14 29 -16 131 -16 894 0 927 -1 908 51 945 21
15 123 16 1127 16 l1104 0 34 -34z"/>
<path d="M1960 2336 c-147 -32 -240 -142 -248 -293 -6 -106 16 -163 93 -240
34 -34 74 -65 88 -68 l26 -7 3 -195 3 -195 33 -29 c36 -32 77 -37 121 -15 45
24 51 51 51 246 l0 179 33 17 c66 34 116 84 149 151 27 56 32 77 32 137 0 126
-66 232 -177 285 -74 35 -133 43 -207 27z m139 -237 c68 -68 20 -179 -78 -179
-46 0 -91 45 -98 97 -5 39 -2 46 30 78 48 48 101 49 146 4z"/>
</g>
</svg>
