<?xml version="1.0" standalone="no"?>
<!DOCTYPE svg PUBLIC "-//W3C//DTD SVG 20010904//EN"
 "http://www.w3.org/TR/2001/REC-SVG-20010904/DTD/svg10.dtd">
<svg version="1.0" xmlns="http://www.w3.org/2000/svg"
 width="512.000000pt" height="512.000000pt" viewBox="0 0 512.000000 512.000000"
 preserveAspectRatio="xMidYMid meet">

<g transform="translate(0.000000,512.000000) scale(0.100000,-0.100000)"
fill="#000000" stroke="none">
<path d="M1363 4111 c-110 -40 -200 -128 -245 -238 l-23 -58 -3 -1219 c-2
-794 1 -1238 8 -1274 23 -128 109 -241 225 -298 l60 -29 619 -3 619 -3 24 22
c23 22 30 60 17 94 -17 44 -30 45 -644 45 -640 0 -621 -2 -688 63 -19 18 -43
50 -55 72 l-22 40 0 1235 0 1235 22 41 c29 53 93 110 140 124 27 8 304 10 949
8 l911 -3 49 -30 c30 -19 60 -49 79 -79 l30 -49 5 -600 5 -599 28 -24 c37 -32
62 -30 98 5 l29 29 0 579 c0 627 -1 646 -55 738 -36 60 -116 132 -183 163
l-57 27 -945 2 c-902 2 -947 2 -997 -16z"/>
<path d="M1675 3378 c-51 -27 -61 -89 -22 -126 l23 -22 668 0 c408 0 674 4
685 10 10 5 24 23 31 39 15 37 -2 79 -40 98 -33 17 -1314 18 -1345 1z"/>
<path d="M1655 2615 c-16 -15 -25 -36 -25 -55 0 -19 9 -40 25 -55 l24 -25 665
0 665 0 27 23 c37 33 37 81 0 114 l-27 23 -665 0 -665 0 -24 -25z"/>
<path d="M3330 2419 c-151 -30 -281 -162 -310 -318 -5 -29 -10 -124 -10 -210
l0 -156 -45 -30 c-63 -42 -121 -124 -146 -207 -57 -185 32 -383 209 -470 l67
-33 320 0 320 0 57 27 c159 74 259 259 229 423 -21 113 -91 223 -176 275 l-33
21 -4 192 c-3 184 -4 194 -30 250 -35 74 -123 166 -190 199 -51 25 -150 49
-192 47 -12 -1 -41 -5 -66 -10z m146 -164 c66 -19 121 -67 150 -129 22 -46 24
-65 24 -196 l0 -145 -241 3 -241 3 3 147 c4 134 6 152 29 196 31 61 85 105
147 122 63 17 71 17 129 -1z m204 -636 c109 -23 184 -119 184 -233 -1 -74 -25
-126 -83 -179 -61 -55 -84 -59 -387 -55 l-271 3 -49 30 c-170 106 -141 361 48
426 45 16 86 18 280 19 128 0 249 -5 278 -11z"/>
<path d="M3339 1461 c-49 -50 -36 -133 26 -166 63 -35 140 4 152 78 15 97
-108 158 -178 88z"/>
<path d="M1652 1867 c-22 -23 -28 -60 -16 -92 17 -43 37 -45 551 -45 527 0
526 0 551 54 16 32 2 80 -29 96 -11 6 -220 10 -527 10 l-509 0 -21 -23z"/>
</g>
</svg>
