<?xml version="1.0" standalone="no"?>
<!DOCTYPE svg PUBLIC "-//W3C//DTD SVG 20010904//EN"
 "http://www.w3.org/TR/2001/REC-SVG-20010904/DTD/svg10.dtd">
<svg version="1.0" xmlns="http://www.w3.org/2000/svg"
 width="512.000000pt" height="512.000000pt" viewBox="0 0 512.000000 512.000000"
 preserveAspectRatio="xMidYMid meet">

<g transform="translate(0.000000,512.000000) scale(0.100000,-0.100000)"
fill="#000000" stroke="none">
<path d="M512 4247 c-119 -284 -124 -347 -120 -1512 3 -829 4 -892 21 -916 48
-71 156 -71 204 0 17 24 18 95 23 1046 6 1011 6 1021 28 1103 24 92 81 234
118 298 13 22 24 44 24 47 0 4 -60 7 -134 7 l-133 0 -31 -73z"/>
<path d="M3181 4249 c34 -311 272 -581 583 -659 71 -18 113 -20 398 -20 l319
0 -3 -1162 -3 -1163 -27 -98 c-62 -227 -152 -380 -318 -547 -166 -166 -320
-255 -547 -318 l-98 -27 -925 0 -925 0 -98 27 c-227 63 -381 152 -547 318
-218 218 -326 455 -349 763 -10 137 -23 163 -88 186 -35 13 -46 13 -78 0 -66
-25 -80 -56 -78 -167 4 -244 92 -521 231 -732 216 -326 541 -542 934 -622 113
-23 116 -23 998 -23 813 0 893 1 979 18 599 115 1037 546 1163 1144 l23 108 3
1185 c2 652 0 1205 -3 1230 -6 43 -19 58 -298 338 l-292 292 -480 0 -481 0 7
-71z"/>
<path d="M2402 3220 c-409 -52 -774 -275 -998 -611 -78 -116 -144 -257 -144
-305 0 -19 14 -67 30 -106 31 -72 126 -238 137 -238 14 0 203 115 203 123 0 4
-13 27 -29 50 -15 23 -43 71 -61 106 l-32 64 37 71 c137 263 378 465 660 555
126 40 221 55 355 55 142 -1 234 -16 372 -61 l107 -35 121 70 121 70 -48 27
c-126 70 -269 121 -423 150 -105 19 -310 27 -408 15z"/>
<path d="M2504 2409 c-725 -418 -1327 -768 -1336 -776 -47 -42 -40 -133 13
-177 58 -49 89 -41 313 89 110 63 203 115 208 115 5 0 41 -22 81 -49 154 -104
353 -184 537 -217 127 -23 353 -23 480 0 325 58 635 239 835 489 121 150 225
346 225 422 0 66 -158 355 -229 419 -12 11 -21 25 -21 31 0 7 76 56 168 110
183 105 202 124 202 195 0 34 -6 48 -34 76 -28 28 -41 34 -78 34 -41 0 -160
-67 -1364 -761z m1000 81 c24 -36 58 -93 76 -127 l31 -63 -40 -77 c-101 -192
-277 -369 -469 -471 -279 -147 -624 -174 -918 -71 -86 30 -244 107 -244 118 0
3 48 32 105 65 116 64 102 63 173 4 18 -16 59 -41 91 -57 273 -138 605 -30
741 241 59 119 70 204 48 395 -3 19 19 35 142 107 l145 85 38 -42 c20 -23 57
-71 81 -107z"/>
<path d="M2421 2835 c-175 -49 -316 -176 -376 -340 -25 -67 -45 -195 -31 -195
4 0 192 107 417 237 247 142 406 240 401 245 -6 6 -41 21 -78 35 -88 33 -249
41 -333 18z"/>
</g>
</svg>
