<?xml version="1.0" standalone="no"?>
<!DOCTYPE svg PUBLIC "-//W3C//DTD SVG 20010904//EN"
 "http://www.w3.org/TR/2001/REC-SVG-20010904/DTD/svg10.dtd">
<svg version="1.0" xmlns="http://www.w3.org/2000/svg"
 width="512.000000pt" height="512.000000pt" viewBox="0 0 512.000000 512.000000"
 preserveAspectRatio="xMidYMid meet">

<g transform="translate(0.000000,512.000000) scale(0.100000,-0.100000)"
fill="#000000" stroke="none">
<path d="M2267 4674 c-417 -93 -716 -417 -766 -829 -6 -51 -11 -256 -11 -471
l0 -381 -83 -6 c-136 -10 -221 -50 -279 -134 -61 -90 -59 -41 -56 -1058 l3
-930 23 -43 c35 -66 88 -119 150 -149 l57 -28 1150 0 1150 0 50 24 c63 32 124
92 155 156 l25 50 0 935 0 935 -28 57 c-34 70 -110 140 -175 163 -26 9 -86 19
-134 22 l-87 6 -3 456 -4 456 -27 88 c-102 330 -339 566 -664 663 -113 34
-337 43 -446 18z m377 -219 c221 -60 409 -225 497 -434 54 -130 59 -182 59
-626 l0 -405 -745 0 -745 0 0 423 c0 387 2 430 19 500 72 280 294 492 581 553
80 17 251 11 334 -11z m935 -1701 c52 -37 51 -18 51 -945 0 -763 -2 -865 -16
-894 -32 -69 35 -65 -1158 -65 -908 0 -1082 2 -1111 14 -68 29 -65 -21 -65
957 l0 881 34 34 34 34 1104 0 c1004 0 1106 -1 1127 -16z"/>
<path d="M2398 2340 c-150 -25 -262 -160 -262 -316 -1 -121 68 -231 182 -288
l32 -17 0 -187 c0 -162 3 -190 18 -208 42 -52 106 -58 154 -15 l33 29 3 195 3
195 26 7 c43 10 146 123 166 180 81 232 -114 465 -355 425z m129 -245 c32 -32
35 -39 30 -78 -18 -135 -206 -124 -207 11 0 36 5 49 31 73 46 43 99 41 146 -6z"/>
</g>
</svg>
