<?xml version="1.0" standalone="no"?>
<!DOCTYPE svg PUBLIC "-//W3C//DTD SVG 20010904//EN"
 "http://www.w3.org/TR/2001/REC-SVG-20010904/DTD/svg10.dtd">
<svg version="1.0" xmlns="http://www.w3.org/2000/svg"
 width="512.000000pt" height="512.000000pt" viewBox="0 0 512.000000 512.000000"
 preserveAspectRatio="xMidYMid meet">

<g transform="translate(0.000000,512.000000) scale(0.100000,-0.100000)"
fill="#000000" stroke="none">
<path d="M2485 4831 c-50 -31 -703 -694 -715 -724 -24 -66 5 -150 64 -187 49
-29 122 -30 168 -2 18 12 114 102 213 202 l180 180 5 -684 c5 -675 5 -685 26
-713 35 -48 82 -73 134 -73 52 0 99 25 134 73 21 28 21 38 26 713 l5 684 180
-180 c99 -100 195 -190 213 -202 76 -47 182 -16 221 66 23 47 26 81 11 123
-12 32 -680 707 -722 729 -38 20 -107 18 -143 -5z"/>
<path d="M1385 4814 c-418 -55 -690 -197 -865 -451 -149 -214 -215 -475 -240
-948 -13 -247 -13 -1465 0 -1710 31 -575 129 -869 364 -1093 223 -211 514
-302 1061 -332 243 -13 1484 -13 1720 0 571 32 861 130 1086 366 211 223 299
509 329 1059 13 246 13 1464 0 1710 -25 464 -91 728 -233 940 -91 135 -240
261 -390 330 -151 69 -370 123 -542 132 -94 5 -102 4 -135 -19 -50 -33 -72
-81 -67 -144 7 -98 56 -136 202 -154 275 -34 442 -97 572 -214 169 -153 242
-379 273 -841 13 -195 13 -1575 0 -1770 -35 -520 -125 -753 -350 -900 -160
-105 -357 -152 -730 -175 -217 -13 -1548 -13 -1760 0 -377 24 -584 74 -737
178 -199 135 -294 355 -335 772 -19 192 -19 1828 0 2020 17 168 53 355 88 450
55 148 168 283 297 354 117 64 209 91 439 125 90 13 136 25 156 40 87 62 79
210 -14 262 -44 25 -80 27 -189 13z"/>
</g>
</svg>
