<?xml version="1.0" standalone="no"?>
<!DOCTYPE svg PUBLIC "-//W3C//DTD SVG 20010904//EN"
 "http://www.w3.org/TR/2001/REC-SVG-20010904/DTD/svg10.dtd">
<svg version="1.0" xmlns="http://www.w3.org/2000/svg"
 width="512.000000pt" height="512.000000pt" viewBox="0 0 512.000000 512.000000"
 preserveAspectRatio="xMidYMid meet">
<metadata>
Created by potrace 1.16, written by Peter Selinger 2001-2019
</metadata>
<g transform="translate(0.000000,512.000000) scale(0.100000,-0.100000)"
fill="#000000" stroke="none">
<path d="M2320 5110 c-476 -64 -926 -385 -1381 -985 -83 -109 -160 -186 -228
-229 -96 -61 -90 -177 13 -216 78 -29 224 78 378 279 367 478 656 726 997 855
162 62 217 71 421 71 170 -1 193 -3 285 -29 122 -33 297 -117 386 -185 94 -72
214 -194 284 -290 162 -222 269 -466 375 -858 54 -197 86 -286 126 -346 30
-45 78 -77 117 -77 82 0 143 90 104 156 -52 89 -75 151 -127 337 -94 339 -168
532 -272 714 -264 461 -625 731 -1068 798 -99 15 -315 18 -410 5z"/>
<path d="M2595 4640 c-225 -48 -434 -153 -641 -321 -102 -83 -204 -186 -336
-340 -145 -169 -292 -309 -405 -386 -111 -75 -294 -177 -398 -220 -44 -18 -90
-44 -103 -57 -33 -33 -39 -92 -13 -134 54 -85 135 -68 414 84 187 101 274 161
394 266 91 79 150 142 362 386 95 108 240 237 353 313 156 104 298 163 480
199 91 18 135 81 104 153 -31 74 -76 86 -211 57z"/>
<path d="M2820 4165 c-113 -26 -217 -77 -339 -163 -36 -26 -154 -134 -261
-241 -543 -540 -917 -794 -1414 -959 -65 -22 -127 -49 -138 -60 -12 -11 -22
-38 -25 -63 -7 -73 41 -129 111 -129 36 0 261 78 395 137 173 76 296 143 441
239 249 165 436 321 755 634 127 125 257 244 290 267 187 126 318 151 456 87
115 -55 179 -129 205 -243 19 -78 17 -135 -6 -227 -50 -194 -193 -395 -440
-618 -361 -327 -1222 -860 -1911 -1184 -71 -34 -93 -61 -93 -117 0 -73 56
-122 126 -111 89 14 525 241 958 499 709 422 1063 688 1319 991 257 306 346
622 251 893 -91 262 -405 432 -680 368z"/>
<path d="M2847 3639 c-9 -6 -54 -58 -99 -117 -99 -129 -385 -418 -523 -529
-392 -313 -841 -566 -1362 -767 -134 -52 -156 -71 -156 -137 0 -49 25 -87 70
-105 32 -14 41 -13 104 6 157 47 552 225 774 347 548 304 994 671 1291 1065
75 101 76 102 71 152 -6 67 -38 96 -105 96 -26 0 -55 -5 -65 -11z"/>
<path d="M3610 2997 c-19 -7 -45 -27 -58 -47 -20 -30 -23 -43 -18 -87 15 -126
85 -254 195 -354 54 -49 81 -65 146 -88 44 -15 119 -47 167 -71 l88 -44 27 20
c16 12 34 32 41 45 16 31 9 95 -14 120 -10 11 -68 44 -129 73 -177 84 -250
165 -294 326 -12 41 -29 82 -39 92 -23 24 -70 30 -112 15z"/>
<path d="M3310 2383 c-503 -52 -907 -460 -948 -956 -21 -256 34 -482 168 -684
219 -333 607 -518 996 -474 362 41 663 244 832 561 144 271 161 611 43 899
-90 220 -268 418 -481 534 -168 92 -414 140 -610 120z m335 -263 c471 -149
713 -632 544 -1090 -85 -230 -305 -430 -549 -500 -95 -27 -262 -37 -355 -21
-328 57 -580 291 -671 621 -27 98 -25 301 4 402 89 313 319 532 634 603 94 22
302 14 393 -15z"/>
<path d="M3340 1911 c-83 -26 -151 -82 -192 -161 -19 -37 -24 -64 -26 -152
l-4 -108 -34 0 -34 0 0 -330 0 -330 365 0 365 0 0 330 0 330 -30 0 -30 0 0 73
c-1 180 -69 292 -209 342 -46 16 -128 19 -171 6z m155 -100 c50 -23 93 -65
113 -111 8 -19 17 -74 20 -122 l5 -88 -212 0 -211 0 0 78 c0 104 14 146 63
196 65 65 146 82 222 47z"/>
<path d="M2305 1803 c-49 -31 -211 -135 -358 -230 -489 -317 -602 -385 -736
-442 -72 -31 -87 -42 -104 -74 -17 -33 -18 -41 -5 -79 7 -23 26 -50 41 -62 85
-63 235 10 878 430 l265 173 23 80 c13 44 39 115 58 158 19 43 37 84 40 91 9
20 -8 13 -102 -45z"/>
<path d="M2105 1017 c-177 -121 -538 -381 -578 -417 -58 -51 -43 -153 28 -187
53 -25 90 -8 280 129 94 68 238 170 320 227 83 58 154 107 158 111 4 4 -1 42
-12 86 -11 43 -22 96 -26 117 -3 20 -9 37 -13 36 -4 0 -74 -46 -157 -102z"/>
<path d="M2396 545 c-143 -72 -446 -333 -465 -401 -22 -80 27 -144 110 -144
47 0 50 2 156 102 118 111 253 216 321 249 45 22 55 21 158 -17 10 -4 -19 33
-66 82 -47 50 -96 107 -110 127 -14 20 -27 37 -30 37 -3 0 -36 -16 -74 -35z"/>
</g>
</svg>
