<?xml version="1.0" standalone="no"?>
<!DOCTYPE svg PUBLIC "-//W3C//DTD SVG 20010904//EN"
 "http://www.w3.org/TR/2001/REC-SVG-20010904/DTD/svg10.dtd">
<svg version="1.0" xmlns="http://www.w3.org/2000/svg"
 width="512.000000pt" height="512.000000pt" viewBox="0 0 512.000000 512.000000"
 preserveAspectRatio="xMidYMid meet">

<g transform="translate(0.000000,512.000000) scale(0.100000,-0.100000)"
fill="#000000" stroke="none">
<path d="M2445 2960 c-57 -12 -137 -43 -192 -76 -59 -33 -456 -425 -478 -470
-34 -72 -1 -175 69 -208 39 -18 102 -21 143 -5 15 6 115 96 221 202 l192 191
0 -463 c0 -450 1 -464 21 -500 33 -59 64 -76 139 -76 75 0 106 17 139 76 20
36 21 50 21 500 l0 463 193 -191 c105 -106 205 -196 220 -202 41 -16 104 -13
143 5 70 33 103 136 69 208 -22 46 -419 437 -479 471 -92 54 -173 77 -281 81
-55 2 -118 -1 -140 -6z"/>
</g>
</svg>
