<?xml version="1.0" standalone="no"?>
<!DOCTYPE svg PUBLIC "-//W3C//DTD SVG 20010904//EN"
 "http://www.w3.org/TR/2001/REC-SVG-20010904/DTD/svg10.dtd">
<svg version="1.0" xmlns="http://www.w3.org/2000/svg"
 width="512.000000pt" height="512.000000pt" viewBox="0 0 512.000000 512.000000"
 preserveAspectRatio="xMidYMid meet">

<g transform="translate(0.000000,512.000000) scale(0.100000,-0.100000)"
fill="#000000" stroke="none">
<path d="M3653 4955 l-96 -145 -1571 -2 -1571 -3 -3 -397 -2 -398 -195 0 -195
0 0 -1550 0 -1550 453 0 452 0 39 -93 c175 -414 541 -706 980 -782 115 -19
326 -19 441 1 432 75 818 387 977 789 l33 84 650 3 c701 4 670 2 789 58 69 33
167 128 203 197 68 127 63 -29 63 2050 l0 1883 -675 0 -675 0 -97 -145z m1247
-1828 c0 -1955 4 -1821 -62 -1901 -18 -22 -52 -52 -77 -68 l-46 -29 -5 1638
-5 1638 -1945 0 -1945 0 -3 -197 -2 -198 -100 0 -100 0 2 298 3 297 1525 3
1525 2 95 145 95 145 523 0 522 0 0 -1773z m-392 -447 c1 -839 0 -1531 -3
-1538 -12 -33 -127 61 -165 135 l-25 48 -5 1190 -5 1190 -1371 3 -1371 2 -99
150 -99 150 -177 0 -178 0 0 93 c0 52 3 97 7 100 3 4 790 6 1747 5 l1741 -3 3
-1525z m-3152 980 l99 -150 1328 0 1327 0 0 -1088 c0 -1192 -3 -1130 59 -1247
14 -27 27 -53 29 -58 2 -4 -166 -6 -374 -5 l-378 3 4 55 c10 114 3 296 -14
380 -141 692 -777 1146 -1464 1044 -548 -81 -984 -503 -1088 -1051 -18 -95
-24 -307 -11 -386 l8 -47 -330 0 -331 0 0 1350 0 1350 519 0 518 0 99 -150z
m980 -1265 c121 -21 212 -51 319 -105 81 -41 224 -137 225 -151 0 -3 -93 -93
-206 -200 -166 -156 -211 -194 -232 -193 -15 1 -72 9 -127 19 -208 36 -446 3
-639 -88 -128 -61 -204 -115 -318 -226 -95 -91 -98 -96 -98 -138 0 -41 4 -48
88 -131 72 -72 236 -196 285 -216 13 -5 -311 -325 -330 -325 -13 -1 -88 109
-126 184 -88 176 -129 401 -108 590 17 144 45 246 105 370 104 215 253 374
461 490 202 113 471 159 701 120z m744 -486 c65 -101 103 -184 134 -291 114
-395 3 -805 -294 -1092 -143 -138 -287 -221 -477 -274 -91 -25 -112 -27 -283
-27 -160 0 -196 3 -266 23 -148 40 -281 105 -403 196 l-54 41 179 173 c98 95
193 184 210 197 l31 25 79 -16 c114 -23 305 -21 424 4 242 52 454 165 628 335
66 66 72 75 72 113 0 37 -6 46 -67 106 -79 75 -149 127 -252 189 l-74 44 174
167 c96 92 177 168 181 168 3 0 30 -37 58 -81z m-837 -342 l28 -12 -176 -168
c-127 -120 -180 -166 -188 -158 -6 6 -11 41 -11 78 -1 115 54 201 159 249 56
27 141 31 188 11z m-528 -114 c-22 -55 -27 -150 -13 -223 9 -41 15 -76 13 -78
-4 -5 -148 96 -184 129 l-35 32 43 39 c50 44 158 118 173 118 6 0 7 -8 3 -17z
m1042 -91 c50 -36 60 -48 51 -59 -15 -19 -190 -135 -194 -130 -3 2 1 28 7 58
11 50 7 154 -7 208 l-7 23 44 -27 c24 -15 72 -48 106 -73z m-331 -19 c21 -176
-145 -329 -316 -292 -28 6 -50 14 -50 17 -1 14 345 340 353 333 4 -4 10 -30
13 -58z"/>
</g>
</svg>
