<?xml version="1.0" standalone="no"?>
<!DOCTYPE svg PUBLIC "-//W3C//DTD SVG 20010904//EN"
 "http://www.w3.org/TR/2001/REC-SVG-20010904/DTD/svg10.dtd">
<svg version="1.0" xmlns="http://www.w3.org/2000/svg"
 width="512.000000pt" height="512.000000pt" viewBox="0 0 512.000000 512.000000"
 preserveAspectRatio="xMidYMid meet">

<g transform="translate(0.000000,512.000000) scale(0.100000,-0.100000)"
fill="#000000" stroke="none">
<path d="M1650 5109 c-476 -61 -892 -356 -1108 -785 -51 -101 -96 -229 -124
-352 -22 -96 -22 -107 -25 -1104 -4 -1115 -8 -1047 60 -1088 41 -25 83 -25
124 0 67 40 63 -20 63 1032 0 1047 1 1063 60 1240 121 362 397 637 760 759
169 56 215 59 997 59 l712 0 3 -332 c5 -376 7 -390 83 -543 79 -161 206 -285
367 -359 138 -64 168 -69 531 -73 l327 -5 0 -1101 c0 -1210 0 -1210 -60 -1389
-143 -426 -510 -737 -947 -803 -144 -22 -1682 -22 -1826 0 -506 76 -916 486
-992 992 -8 54 -15 123 -15 154 0 118 -97 185 -187 129 -55 -33 -67 -69 -59
-188 31 -513 332 -969 792 -1200 104 -52 231 -97 357 -124 102 -23 104 -23
1017 -23 913 0 915 0 1017 23 394 87 721 314 935 648 79 123 152 304 190 472
22 97 22 99 25 1322 2 674 1 1236 -2 1250 -7 28 -1332 1362 -1377 1386 -23 12
-150 14 -830 13 -442 -1 -832 -5 -868 -10z"/>
<path d="M2340 3215 c-201 -33 -427 -126 -590 -243 -197 -142 -366 -349 -465
-567 -41 -89 -38 -124 17 -237 54 -113 113 -208 128 -208 9 0 189 101 208 116
2 1 -10 23 -27 47 -17 25 -46 76 -66 113 l-34 68 35 66 c66 119 107 174 203
271 153 154 318 250 529 307 87 23 116 26 277 26 194 1 282 -14 418 -69 l61
-24 123 71 c68 39 123 73 123 77 0 12 -188 101 -278 130 -48 16 -121 37 -162
46 -104 23 -388 29 -500 10z"/>
<path d="M3805 3163 c-176 -95 -2617 -1512 -2637 -1531 -78 -72 -22 -204 86
-206 35 0 71 17 243 117 111 64 204 117 206 117 2 0 41 -25 87 -56 153 -102
297 -162 491 -206 137 -30 407 -33 539 -5 113 24 272 78 357 121 183 92 377
253 499 415 88 118 189 318 188 374 -2 71 -117 286 -223 416 -20 24 -31 46
-26 48 6 2 82 45 170 96 202 118 229 151 191 242 -28 65 -107 92 -171 58z
m-372 -585 c48 -57 122 -168 155 -234 l21 -41 -36 -69 c-244 -478 -807 -718
-1332 -568 -86 25 -291 118 -291 132 0 4 45 33 100 65 l100 57 55 -45 c109
-88 215 -126 355 -126 191 1 356 87 459 241 89 134 116 290 79 461 -3 10 264
177 284 179 3 0 27 -24 51 -52z"/>
<path d="M2462 2849 c-203 -36 -380 -198 -435 -400 -17 -61 -31 -159 -22 -159
3 0 194 109 425 242 l420 242 -27 17 c-81 50 -251 78 -361 58z"/>
</g>
</svg>
