<?xml version="1.0" encoding="UTF-8"?>
<svg version="1.1" xmlns="http://www.w3.org/2000/svg" width="512" height="512">
<path d="M0 0 C0.95715912 -0.0071553 1.91431824 -0.01431061 2.90048218 -0.02168274 C3.93898819 -0.02437164 4.9774942 -0.02706055 6.04747009 -0.02983093 C7.70214294 -0.03968773 7.70214294 -0.03968773 9.39024353 -0.04974365 C13.03892591 -0.06944392 16.68756714 -0.08113327 20.33628845 -0.09111023 C21.58546995 -0.09518576 22.83465145 -0.09926128 24.12168694 -0.10346031 C30.05478804 -0.12216155 35.98787618 -0.1367287 41.92099959 -0.14507228 C48.74110753 -0.15482458 55.56088919 -0.18109729 62.38088232 -0.22157317 C68.31020353 -0.25553949 74.2394462 -0.26723107 80.16886711 -0.27127647 C82.67932278 -0.27613117 85.18977525 -0.28771304 87.7001667 -0.30631447 C91.2250486 -0.33080552 94.7490907 -0.329722 98.27403259 -0.32279968 C99.81053719 -0.34201477 99.81053719 -0.34201477 101.37808228 -0.36161804 C112.76722289 -0.28066372 122.08109262 3.34003974 131.1136322 10.14717102 C131.9798822 10.72467102 132.8461322 11.30217102 133.7386322 11.89717102 C142.50425389 20.2014442 147.16155068 31.93546955 152.28501892 42.64741516 C153.30528135 44.77268338 154.33785968 46.89163909 155.3714447 49.01045227 C155.67365936 49.65323624 155.97587402 50.2960202 156.2872467 50.95828247 C158.33561218 55.14655059 160.44108615 58.25419012 164.1136322 61.14717102 C171.16432176 63.50842208 177.9770449 63.4273216 185.35997009 63.40254211 C187.3760676 63.40809996 189.39216509 63.41366212 191.40826213 63.41938615 C193.56313416 63.42371015 195.71795993 63.42326052 197.87283516 63.42156601 C202.38492273 63.41871474 206.896856 63.43315426 211.40890503 63.45054626 C224.23550595 63.4973943 237.06209593 63.52148905 249.88877869 63.5280304 C256.98265352 63.53180066 264.07635293 63.54998737 271.1701526 63.58312476 C275.64027597 63.60316063 280.10994134 63.60579743 284.58009064 63.59484458 C287.38229093 63.59220663 290.18423367 63.60638975 292.98636627 63.62492561 C294.87156935 63.6326426 296.7568221 63.62093077 298.64199829 63.60824585 C310.48453373 63.72060124 321.98173383 66.35552335 332.4886322 71.95967102 C333.15725281 72.30731506 333.82587341 72.65495911 334.51475525 73.01313782 C339.86495207 75.86670615 344.62791421 79.04617702 349.1136322 83.14717102 C350.00566345 83.94767883 350.8976947 84.74818665 351.8167572 85.57295227 C361.7675966 94.96643591 368.79946999 106.11321804 373.1136322 119.14717102 C373.48488267 120.24887477 373.48488267 120.24887477 373.86363316 121.37283516 C376.82836912 131.43151538 376.54363158 141.39904996 376.51768494 151.78340149 C376.52339549 153.85423143 376.53036239 155.92505823 376.53848267 157.99588013 C376.55634485 163.58841507 376.55525983 169.18079254 376.54954028 174.77334738 C376.54644107 179.44829781 376.5525484 184.12321832 376.55857903 188.79816449 C376.57259726 199.82272869 376.57108299 210.84721533 376.55967712 221.8717804 C376.54817379 233.24183338 376.56231496 244.6116511 376.5890736 255.98167312 C376.61121477 265.75604248 376.61787227 275.53033788 376.61199719 285.30473053 C376.60862564 291.13762248 376.61105716 296.97036328 376.62824821 302.8032341 C376.64369197 308.28139107 376.63979026 313.75919792 376.62094307 319.23734093 C376.61725137 321.24730168 376.62038251 323.25728826 376.63082886 325.26722527 C376.64399928 328.0105615 376.63252682 330.75273157 376.61483765 333.49601746 C376.62444265 334.29134506 376.63404766 335.08667267 376.64394373 335.90610111 C376.57495795 341.10442978 375.49697204 343.99508405 372.1136322 348.14717102 C368.29433048 351.77550765 365.23084214 352.4571756 360.1136322 352.64717102 C354.99642226 352.4571756 351.93293392 351.77550765 348.1136322 348.14717102 C344.35215782 343.47509163 343.53639716 339.8439246 343.60810852 333.99627686 C343.6020184 333.19177929 343.59592828 332.38728173 343.58965361 331.55840546 C343.57407581 328.8708191 343.58683313 326.18412679 343.59947205 323.49653625 C343.59401004 321.56602418 343.58676793 319.63551644 343.57788086 317.70501709 C343.56254574 313.55038521 343.55974121 309.39600029 343.56664658 305.24134636 C343.57744163 298.66323088 343.56003849 292.08537275 343.53883362 285.5072937 C343.50856596 275.09296621 343.4968789 264.67871496 343.49325716 254.26434714 C343.48661763 235.64113344 343.45745529 217.01797348 343.40816081 198.39482456 C343.39172559 191.86531618 343.38623414 185.33591865 343.3897512 178.8063916 C343.39019065 174.72934203 343.38258761 170.65233369 343.37307549 166.5752964 C343.37041013 164.69567406 343.37111447 162.81604317 343.37558556 160.93642426 C343.41861645 141.48890429 342.38378125 124.82547471 328.23472595 110.20576477 C315.14352678 97.96086535 299.91346894 96.99780382 282.86802673 97.00532532 C280.88911727 96.99999195 278.9102078 96.99465262 276.93129897 96.98908865 C274.82315256 96.98392329 272.71501228 96.98098851 270.60686111 96.97850609 C266.19207693 96.97254272 261.7773711 96.95595382 257.36262512 96.93716431 C255.84467511 96.93082863 254.32672505 96.92450299 252.80877495 96.91818714 C251.66924893 96.91343842 251.66924893 96.91343842 250.50670218 96.90859377 C240.24467022 96.86668611 229.98267776 96.83354424 219.7205658 96.82124329 C212.77574719 96.81283378 205.8311264 96.79024416 198.88640678 96.75188762 C195.2218562 96.73223795 191.55760051 96.71968543 187.89299393 96.72472191 C183.80106509 96.73027853 179.70986621 96.70483883 175.61802673 96.67720032 C174.42388153 96.68380173 173.22973633 96.69040314 171.99940491 96.69720459 C160.07818028 96.56562046 150.60876154 93.30292067 141.1136322 86.14717102 C140.2473822 85.56967102 139.3811322 84.99217102 138.4886322 84.39717102 C129.72816741 76.09778332 125.08587399 64.3759706 120.01768494 53.64692688 C119.00867352 51.51971195 117.98213991 49.40165532 116.95347595 47.28388977 C116.65642258 46.6411058 116.3593692 45.99832184 116.05331421 45.33605957 C113.30545976 39.7161273 109.91809272 36.14901657 103.97839355 34.02716064 C99.57122924 33.02366819 95.57888731 32.86602487 91.0799408 32.88838196 C89.76373749 32.883125 89.76373749 32.883125 88.42094421 32.87776184 C85.53457097 32.86899682 82.64844524 32.87477828 79.7620697 32.88154602 C77.74055434 32.88019715 75.71903929 32.87825476 73.69752502 32.87574768 C69.46266081 32.87280287 65.2278811 32.87707071 60.99302673 32.88642883 C55.59681082 32.89777905 50.20079487 32.89128795 44.80458641 32.87928391 C40.62811311 32.87201039 36.45168613 32.87437903 32.27521133 32.87953949 C30.28753765 32.88086313 28.2998596 32.87927392 26.31219101 32.87458038 C6.41792619 32.83793226 -10.78013951 33.46287363 -25.82777405 48.02607727 C-37.59326535 60.60473428 -39.04352068 75.64496897 -39.02008057 92.07557678 C-39.0234789 93.8374476 -39.0234789 93.8374476 -39.02694589 95.63491178 C-39.03215776 98.87314365 -39.03293478 102.11134034 -39.03175151 105.34957504 C-39.03154655 108.85072471 -39.03707539 112.35186625 -39.04180908 115.85301208 C-39.05009542 122.70420414 -39.05286301 129.55538759 -39.05342146 136.40658423 C-39.05389757 141.97881852 -39.05595708 147.55104999 -39.05912209 153.12328339 C-39.06792312 168.94146605 -39.07254232 184.75964194 -39.07179161 200.57782707 C-39.07173168 201.8554531 -39.07173168 201.8554531 -39.07167053 203.15888977 C-39.07160921 204.43808603 -39.07160921 204.43808603 -39.07154665 205.74312463 C-39.07114033 219.55921539 -39.08070785 233.37527888 -39.0948089 247.19136176 C-39.10919258 261.39709728 -39.11607799 275.60281953 -39.11521512 289.80856252 C-39.11488384 297.77616736 -39.11760061 305.7437436 -39.12839317 313.71134186 C-39.13752441 320.49563118 -39.13965195 327.27987894 -39.13288375 334.06417176 C-39.12963176 337.52097877 -39.12951373 340.97770616 -39.138237 344.43450546 C-39.14598769 348.19335083 -39.14129163 351.95198957 -39.13360596 355.71083069 C-39.13874952 356.78741778 -39.14389308 357.86400487 -39.14919251 358.97321582 C-39.07279972 375.97591488 -36.02400958 389.67231038 -24.00746155 402.08857727 C-11.72393598 413.57801634 3.01146468 415.30694726 19.1020813 415.2784729 C20.71210202 415.28164647 20.71210202 415.28164647 22.35464841 415.28488415 C25.93341839 415.29085201 29.51215279 415.28988632 33.09092712 415.28901672 C35.6637681 415.29205021 38.23660854 415.29557219 40.80944824 415.29954529 C46.34067972 415.30763218 51.87190664 415.31259291 57.40314293 415.31583595 C66.14701641 415.3213492 74.89085126 415.33826167 83.63470459 415.35717773 C86.62974447 415.36353318 89.62478444 415.36984173 92.61982441 415.3761549 C93.74229845 415.37853054 93.74229845 415.37853054 94.88744872 415.38095418 C103.39212106 415.3988655 111.89679608 415.41510625 120.401474 415.43013 C121.17835169 415.43150588 121.95522939 415.43288175 122.75564883 415.43429931 C135.36074796 415.45625611 147.96583702 415.46699354 160.5709519 415.47450075 C173.52351301 415.48257036 186.47598804 415.50585062 199.4285 415.54245442 C207.41282283 415.56447316 215.39696868 415.57414606 223.38132033 415.56795409 C229.49512116 415.5644058 235.60870131 415.58163307 241.72244835 415.60663223 C244.23067788 415.61356535 246.73893695 415.61364794 249.24716568 415.60643196 C252.66716604 415.59758512 256.08621142 415.61317082 259.50613403 415.63491821 C260.50194636 415.62647568 261.49775869 415.61803314 262.52374715 415.60933477 C268.2389945 415.67668857 271.59986559 416.28942911 276.1136322 420.14717102 C279.74196884 423.96647274 280.42363678 427.02996108 280.6136322 432.14717102 C280.42363678 437.26438096 279.74196884 440.3278693 276.1136322 444.14717102 C270.70226062 448.82596424 266.02649923 448.71480416 259.05297852 448.65510559 C257.93545855 448.66134555 256.81793859 448.66758552 255.66655439 448.67401457 C251.91961413 448.68997652 248.17332151 448.67732673 244.42637634 448.66474915 C241.74048463 448.67016911 239.05463759 448.67714649 236.36875916 448.68598938 C229.82724707 448.70377517 223.28591859 448.6999329 216.74439932 448.68833882 C211.42238247 448.67929803 206.10041702 448.67808331 200.7783947 448.68243408 C199.64127386 448.68335348 199.64127386 448.68335348 198.48118089 448.68429145 C196.94094105 448.68557041 195.40070122 448.68686726 193.86046141 448.68818182 C179.41437502 448.69958959 164.96839012 448.68647448 150.52232038 448.66498035 C138.15093254 448.64714169 125.77969501 448.65018634 113.40830994 448.6686554 C99.02718157 448.69011488 84.64614243 448.69845674 70.26500028 448.68620634 C68.7277374 448.68493224 67.1904745 448.68367475 65.65321159 448.68243408 C64.89696188 448.68181698 64.14071216 448.68119988 63.36154579 448.68056408 C58.05603202 448.67712393 52.75057521 448.68291126 47.44507027 448.69235229 C40.96410209 448.70363167 34.48332741 448.70041004 28.00238109 448.67922932 C24.70119619 448.66879285 21.40039517 448.66666029 18.09920311 448.67782593 C1.52807592 448.72868058 -13.3248357 448.30148754 -28.2613678 440.33467102 C-28.9299884 439.98702698 -29.59860901 439.63938293 -30.28749084 439.28120422 C-35.63768766 436.42763589 -40.4006498 433.24816503 -44.8863678 429.14717102 C-45.77839905 428.34666321 -46.6704303 427.5461554 -47.5894928 426.72138977 C-61.7255656 413.37709154 -71.65082269 394.50849833 -72.26668453 374.80864239 C-72.28425853 372.500627 -72.28583761 370.1924516 -72.27404785 367.88439941 C-72.27943339 366.60249436 -72.28481893 365.32058931 -72.29036766 363.99983865 C-72.30471104 360.47574135 -72.30061277 356.95188011 -72.29320085 353.4277705 C-72.28844363 349.61373114 -72.30100152 345.79974101 -72.31121826 341.98571777 C-72.32836237 334.52664129 -72.32925535 327.0676492 -72.32400536 319.60855814 C-72.3199539 313.54155402 -72.32141877 307.47457473 -72.32675362 301.40757179 C-72.32750204 300.54206509 -72.32825046 299.67655838 -72.32902156 298.7848242 C-72.33055314 297.02619057 -72.33209149 295.26755695 -72.33363653 293.50892333 C-72.34734592 277.03842279 -72.34193507 260.56796982 -72.33045132 244.09747038 C-72.32052255 229.05424582 -72.33345622 214.01114432 -72.35738551 198.96793874 C-72.38181277 183.49421383 -72.39137536 168.02054614 -72.38473278 152.54680234 C-72.38124836 143.87045132 -72.38342103 135.19419487 -72.40098381 126.51785851 C-72.41575132 119.13125724 -72.41628221 111.74481713 -72.3989129 104.35821887 C-72.39043739 100.59525614 -72.38816788 96.83258075 -72.40356445 93.06963348 C-72.47014205 75.55449972 -72.50615021 59.5924969 -64.0738678 43.77217102 C-63.73057434 43.107901 -63.38728088 42.44363098 -63.03358459 41.75923157 C-59.05995291 34.27542145 -54.09309475 27.92087051 -47.8863678 22.14717102 C-47.22507874 21.48072571 -46.56378967 20.8142804 -45.88246155 20.12763977 C-33.98586597 8.62302428 -16.796611 0.08670604 0 0 Z " fill="#283A96" transform="translate(103.88636779785156,31.852828979492188)"/>
<path d="M0 0 C0.67424011 -0.00794586 1.34848022 -0.01589172 2.04315186 -0.02407837 C20.06591625 -0.18696601 38.13951134 3.4708062 53.88671875 12.5546875 C55.87312062 13.50742805 55.87312062 13.50742805 57.8984375 13.31640625 C61.85460411 11.48990021 64.47561529 7.86651448 67.40234375 4.72265625 C72.025327 0.44158856 76.33649679 -0.08793461 82.4375 0.06640625 C87.89053255 0.73951496 90.9382292 3.11950592 94.375 7.4375 C96.69162656 12.09081049 96.91423941 17.32611909 95.9375 22.375 C93.00935672 27.33160843 89.40407988 31.19187301 85.33325195 35.23321533 C84.67112103 35.89846623 84.00899012 36.56371713 83.32679462 37.24912715 C81.11451718 39.46936001 78.89518615 41.68240147 76.67578125 43.89550781 C75.08522752 45.48877244 73.49509939 47.08246205 71.90536499 48.67654419 C67.59196422 52.99905799 63.27226661 57.31522713 58.95113754 61.63001347 C54.43098315 66.14510405 49.91571078 70.66507258 45.3996582 75.18426514 C37.33162735 83.25616674 29.25856786 91.32301322 21.18351567 99.387889 C13.86202772 106.7004358 6.54580788 114.018219 -0.76660156 121.33984375 C-9.26234559 129.84628937 -17.7614351 138.34936557 -26.26548862 146.84750628 C-30.76576934 151.34466611 -35.26468103 155.84317311 -39.76010132 160.34519196 C-43.98429992 164.5751578 -48.21334178 168.80022031 -52.44620895 173.02151108 C-54.00078259 174.57343515 -55.55364741 176.12707307 -57.10469437 177.68252182 C-59.21796551 179.80123779 -61.33726754 181.91372897 -63.45825195 184.02471924 C-64.07420573 184.64513446 -64.69015951 185.26554968 -65.32477856 185.90476537 C-65.89458604 186.46935735 -66.46439352 187.03394934 -67.0514679 187.61565018 C-67.53989827 188.10375585 -68.02832865 188.59186152 -68.53155994 189.09475827 C-73.05983391 192.88150698 -77.44591237 192.79849806 -83.1484375 192.6875 C-88.44990101 192.11897844 -90.90222495 189.59634216 -94.4375 185.875 C-96.83502498 180.71110005 -96.8182804 175.97394458 -96.0625 170.375 C-93.71209362 165.49338674 -89.94837257 162.084242 -86.0625 158.375 C-87.52830378 154.94455869 -89.423807 152.86124472 -92.125 150.3125 C-97.21246276 145.32209535 -101.66641452 139.97298701 -106.0625 134.375 C-106.81370117 133.43043945 -106.81370117 133.43043945 -107.58007812 132.46679688 C-113.5293789 124.97110745 -119.30034876 117.41229242 -124.3125 109.25 C-124.68310547 108.65928711 -125.05371094 108.06857422 -125.43554688 107.45996094 C-128.18026451 102.82660363 -129.6977071 98.62439953 -128.6418457 93.22314453 C-126.9416334 87.4556969 -124.05791209 82.91699061 -120.5 78.125 C-119.96769775 77.39120117 -119.43539551 76.65740234 -118.88696289 75.90136719 C-117.29289321 73.71507863 -115.68136219 71.54297374 -114.0625 69.375 C-113.38960937 68.46814453 -113.38960937 68.46814453 -112.703125 67.54296875 C-109.88932761 63.76518521 -107.00122688 60.05653304 -104.0625 56.375 C-103.65241699 55.86050293 -103.24233398 55.34600586 -102.81982422 54.81591797 C-81.47081783 28.24330645 -54.05529923 4.76245798 -18.85693359 0.60205078 C-12.57998732 0.09204204 -6.29397608 0.03889872 0 0 Z M-65 61.875 C-72.26781291 69.16533533 -78.61244943 77.03361062 -84.59863281 85.3984375 C-85.63100152 86.7923763 -86.71417121 88.14937683 -87.83105469 89.4765625 C-89.41233579 91.3902262 -90.83948896 93.21481575 -92.0625 95.375 C-91.99207917 98.03652109 -91.99207917 98.03652109 -90.0625 100.375 C-89.66192383 100.95765625 -89.26134766 101.5403125 -88.84863281 102.140625 C-87.34749751 104.26331597 -85.78004446 106.32005927 -84.1875 108.375 C-83.61467285 109.11959473 -83.0418457 109.86418945 -82.45166016 110.63134766 C-76.17182239 118.68573491 -69.33225788 126.20282276 -62.0625 133.375 C-55.9638644 130.87893395 -51.32195849 125.39872654 -46.65234375 120.88476562 C-45.43268308 119.71818997 -44.19893239 118.56615773 -42.95117188 117.4296875 C-35.26418813 110.67681381 -35.26418813 110.67681381 -31.31152344 101.5859375 C-31.27672939 97.91117571 -31.27672939 97.91117571 -31.73632812 94.49121094 C-32.36490417 88.48586315 -30.13962395 83.40956745 -27.375 78.1875 C-21.29553653 70.79355794 -14.71551221 65.75774293 -5.0625 64.375 C-2.89300516 64.60203618 -0.72375302 64.83139807 1.4453125 65.0625 C7.98219031 65.11030167 11.05173952 63.53230863 15.5546875 59.125 C17.70579881 56.93041931 19.76180627 54.66307513 21.8125 52.375 C22.90157274 51.21557037 23.994003 50.05928494 25.08984375 48.90625 C27.74584033 46.09726711 30.35276189 43.24962124 32.9375 40.375 C32.09195197 38.14808697 32.09195197 38.14808697 29.62890625 37.375 C-5.98654494 25.99228401 -38.82370708 36.21269627 -65 61.875 Z " fill="#FE6A7E" transform="translate(256.0625,191.625)"/>
<path d="M0 0 C8.9474609 4.12959734 14.87820026 14.38164764 20.3125 22.25 C20.93189453 23.13429688 21.55128906 24.01859375 22.18945312 24.9296875 C27.67934761 32.82178337 30.53199223 38.09633368 29 48 C27.19231947 52.07454679 24.66900874 55.44610485 22 59 C21.22738531 60.09979675 20.45931673 61.20279816 19.6953125 62.30859375 C10.67198917 75.2998399 0.92552721 87.56087963 -10 99 C-10.88429688 99.93714844 -11.76859375 100.87429688 -12.6796875 101.83984375 C-33.4215961 123.2731493 -59.99706963 137.34365895 -90.171875 138.28125 C-92.78109639 138.32341857 -95.39051779 138.35457797 -98 138.375 C-99.25329102 138.38901855 -100.50658203 138.40303711 -101.79785156 138.41748047 C-109.41645088 138.37761927 -115.68145431 138.08935812 -122.05859375 133.52734375 C-126.21721354 128.73256116 -127.42865309 124.33794218 -127 118 C-125.35395187 112.09359202 -122.80402955 109.47525542 -118 106 C-115.16088659 104.5804433 -112.72310403 104.8540028 -109.55078125 104.82421875 C-77.97675835 104.32746185 -55.37246468 96.87926016 -32.65625 74.08740234 C-26.32161117 67.52629366 -20.84047232 60.37094447 -15.47216797 53.01220703 C-13.01314825 49.65113895 -10.50428004 46.3274077 -8 43 C-9.24654773 40.38417082 -10.58754949 38.04916219 -12.3125 35.72265625 C-12.74820313 35.12646484 -13.18390625 34.53027344 -13.6328125 33.91601562 C-14.54240583 32.68286695 -15.45385861 31.45108762 -16.3671875 30.22070312 C-20.49935075 24.55426033 -22.62256496 20.22175349 -22 13 C-20.17698367 7.12583628 -17.83361931 4.49666077 -13 1 C-9.04452388 -0.97773806 -4.31134346 -0.42256065 0 0 Z " fill="#FE6A7E" transform="translate(355,246)"/>
<path d="M0 0 C12.67392588 -0.09269836 25.34777104 -0.16376445 38.02196693 -0.20724869 C43.90718184 -0.22811943 49.79216472 -0.25642827 55.67724609 -0.30175781 C61.35715387 -0.34523301 67.03683854 -0.36914097 72.71689987 -0.37950897 C74.88344205 -0.38689727 77.04997208 -0.40132486 79.21641922 -0.42292023 C82.25213213 -0.45197586 85.28692422 -0.45595502 88.32275391 -0.45410156 C89.66495499 -0.47567322 89.66495499 -0.47567322 91.03427124 -0.49768066 C96.53011794 -0.46139524 99.63461695 0.34811817 104 4 C107.62833663 7.81930172 108.31000458 10.88279006 108.5 16 C108.31000458 21.11720994 107.62833663 24.18069828 104 28 C98.77929906 32.36740205 94.82508292 32.55860602 88.32275391 32.45410156 C87.36602783 32.45468567 86.40930176 32.45526978 85.42358398 32.45587158 C82.27420249 32.45309399 79.12577783 32.4220167 75.9765625 32.390625 C73.78795895 32.38316147 71.59934871 32.37746907 69.41073608 32.37347412 C63.65994709 32.35822671 57.90956439 32.31895213 52.15893555 32.2746582 C46.28700252 32.23368651 40.41500362 32.21545902 34.54296875 32.1953125 C23.02846766 32.15245739 11.51426766 32.0842165 0 32 C0.99 31.34 1.98 30.68 3 30 C8.42050704 25.97544907 8.42050704 25.97544907 11 20 C11.56831638 15.2137105 11.49988397 11.96406195 9.25 7.625 C7.26048602 5.30390036 5.55180903 3.64632841 3 2 C2.01 1.34 1.02 0.68 0 0 Z " fill="#FD6A7F" transform="translate(276,448)"/>
</svg>
