<?xml version="1.0" standalone="no"?>
<!DOCTYPE svg PUBLIC "-//W3C//DTD SVG 20010904//EN"
 "http://www.w3.org/TR/2001/REC-SVG-20010904/DTD/svg10.dtd">
<svg version="1.0" xmlns="http://www.w3.org/2000/svg"
 width="512.000000pt" height="512.000000pt" viewBox="0 0 512.000000 512.000000"
 preserveAspectRatio="xMidYMid meet">

<g transform="translate(0.000000,512.000000) scale(0.100000,-0.100000)"
fill="#000000" stroke="none">
<path d="M2500 4897 c-19 -7 -42 -17 -52 -23 -9 -5 -505 -449 -1102 -986 -790
-712 -1091 -988 -1106 -1017 -36 -72 -21 -181 33 -239 61 -66 175 -86 252 -44
22 11 487 424 1034 916 547 493 998 896 1001 896 4 0 452 -401 996 -891 544
-490 1003 -900 1019 -910 51 -33 104 -42 161 -30 133 30 203 179 142 301 -18
36 -244 244 -1103 1018 -594 535 -1097 982 -1117 993 -50 26 -115 32 -158 16z"/>
<path d="M802 2340 c-58 -14 -108 -55 -136 -113 l-27 -54 3 -699 3 -699 27
-80 c88 -258 300 -436 565 -475 93 -13 2554 -13 2647 0 155 23 279 85 390 196
83 82 136 167 174 279 l27 80 3 699 3 699 -27 54 c-63 129 -219 158 -328 61
-78 -68 -76 -49 -76 -786 0 -465 -3 -656 -12 -684 -15 -50 -78 -122 -132 -151
l-41 -22 -1305 0 -1305 0 -41 22 c-54 29 -117 101 -132 151 -9 28 -12 218 -12
681 0 440 -4 656 -11 686 -17 66 -78 131 -142 150 -55 16 -66 17 -115 5z"/>
</g>
</svg>
