<?xml version="1.0" standalone="no"?>
<!DOCTYPE svg PUBLIC "-//W3C//DTD SVG 20010904//EN"
 "http://www.w3.org/TR/2001/REC-SVG-20010904/DTD/svg10.dtd">
<svg version="1.0" xmlns="http://www.w3.org/2000/svg"
 width="735.000000pt" height="708.000000pt" viewBox="0 0 735.000000 708.000000"
 preserveAspectRatio="xMidYMid meet">
<metadata>
Created by potrace 1.16, written by Peter Selinger 2001-2019
</metadata>
<g transform="translate(0.000000,708.000000) scale(0.100000,-0.100000)"
fill="#000000" stroke="none">
<path d="M3589 6721 c-48 -15 -74 -34 -174 -126 -55 -50 -269 -246 -475 -436
-206 -189 -401 -369 -435 -399 -33 -30 -172 -159 -310 -285 -137 -127 -502
-462 -810 -745 -308 -284 -696 -640 -862 -793 -342 -315 -348 -322 -341 -436
4 -81 35 -135 100 -178 34 -23 55 -29 117 -31 70 -3 80 -1 121 26 25 16 119
98 210 182 91 84 212 196 269 249 57 53 107 98 112 99 5 2 9 -689 9 -1665 0
-1145 3 -1680 11 -1706 13 -47 70 -112 120 -138 37 -19 87 -19 2376 -19 2250
0 2340 1 2379 19 49 23 107 88 122 140 9 28 12 477 12 1740 0 935 3 1701 8
1701 4 0 73 -60 153 -133 80 -73 226 -204 323 -292 97 -88 195 -170 218 -182
30 -17 58 -23 101 -23 134 0 228 93 229 226 1 93 -22 124 -240 321 -108 98
-226 205 -262 238 -36 33 -178 161 -315 285 -137 124 -350 317 -474 429 -125
112 -289 261 -366 330 -77 69 -167 151 -200 182 -33 30 -224 204 -425 385
-200 181 -439 397 -530 479 -91 83 -262 237 -379 342 -182 165 -220 195 -264
208 -55 16 -88 18 -128 6z m357 -803 c159 -143 379 -343 489 -442 110 -100
435 -394 723 -654 l522 -473 0 -1785 0 -1784 -2050 0 -2050 0 0 1753 1 1752
381 350 c318 291 1100 1010 1503 1381 151 139 179 164 186 164 3 0 136 -118
295 -262z"/>
<path d="M2840 3117 c-48 -15 -126 -95 -139 -143 -7 -27 -11 -325 -11 -931 l0
-893 230 0 230 0 0 760 0 760 480 0 480 0 0 -760 0 -760 230 0 230 0 -2 908
-3 907 -22 41 c-12 23 -36 53 -54 68 -69 58 -35 56 -858 55 -523 -1 -767 -4
-791 -12z"/>
</g>
</svg>
