<?xml version="1.0" standalone="no"?>
<!DOCTYPE svg PUBLIC "-//W3C//DTD SVG 20010904//EN"
 "http://www.w3.org/TR/2001/REC-SVG-20010904/DTD/svg10.dtd">
<svg version="1.0" xmlns="http://www.w3.org/2000/svg"
 width="512.000000pt" height="512.000000pt" viewBox="0 0 512.000000 512.000000"
 preserveAspectRatio="xMidYMid meet">

<g transform="translate(0.000000,512.000000) scale(0.100000,-0.100000)"
fill="#000000" stroke="none">
<path d="M1645 4843 c-689 -58 -1100 -340 -1274 -873 -63 -194 -90 -367 -98
-625 -5 -188 -5 -190 18 -224 53 -76 132 -100 206 -62 74 37 86 70 94 265 11
253 31 385 86 551 111 341 346 535 743 614 167 33 291 41 624 41 174 0 326 4
345 10 47 13 99 66 112 112 18 68 -19 151 -81 183 -24 13 -88 15 -382 13 -194
-1 -371 -3 -393 -5z"/>
<path d="M4625 4839 c-11 -6 -397 -388 -857 -848 l-838 -836 0 344 c0 384 -1
391 -69 437 -26 18 -49 24 -87 24 -65 0 -111 -29 -141 -90 -23 -44 -23 -44
-23 -575 0 -317 4 -544 10 -565 12 -45 65 -97 111 -110 20 -6 247 -10 564 -10
531 0 531 0 575 23 61 30 90 76 90 141 0 38 -6 61 -24 87 -46 68 -53 69 -437
69 l-344 0 842 843 c584 584 844 851 849 870 18 77 -17 161 -80 191 -39 18
-111 21 -141 5z"/>
<path d="M350 2490 c-19 -12 -44 -34 -55 -48 -19 -26 -20 -43 -20 -427 0 -276
4 -428 13 -490 59 -405 175 -669 384 -871 201 -195 445 -303 818 -361 105 -16
200 -18 1070 -18 866 0 966 2 1070 18 390 60 641 176 846 388 185 193 290 434
350 804 13 76 18 196 21 505 l5 405 -24 35 c-33 50 -105 84 -159 75 -53 -9
-115 -64 -129 -113 -6 -22 -10 -169 -10 -348 0 -333 -8 -457 -41 -624 -103
-518 -399 -761 -998 -820 -138 -13 -1725 -13 -1862 0 -530 53 -825 253 -952
645 -69 215 -78 292 -86 755 -7 436 -6 434 -72 481 -46 32 -123 36 -169 9z"/>
</g>
</svg>
