<?xml version="1.0" standalone="no"?>
<!DOCTYPE svg PUBLIC "-//W3C//DTD SVG 20010904//EN"
 "http://www.w3.org/TR/2001/REC-SVG-20010904/DTD/svg10.dtd">
<svg version="1.0" xmlns="http://www.w3.org/2000/svg"
 width="512.000000pt" height="512.000000pt" viewBox="0 0 512.000000 512.000000"
 preserveAspectRatio="xMidYMid meet">

<g transform="translate(0.000000,512.000000) scale(0.100000,-0.100000)"
fill="#000000" stroke="none">
<path d="M3260 4786 c-110 -31 -219 -108 -295 -207 -54 -72 -135 -231 -135
-265 0 -36 40 -75 77 -76 44 -1 61 16 96 92 61 134 148 234 245 282 69 34 178
32 248 -4 75 -39 155 -132 209 -241 67 -138 95 -253 102 -422 5 -132 -6 -261
-25 -292 -6 -9 -25 -5 -72 14 -36 14 -108 33 -160 41 -81 14 -98 20 -114 41
-10 15 -51 57 -89 94 -169 164 -416 225 -661 163 -390 -99 -634 -460 -563
-835 l16 -84 -99 -108 c-55 -60 -100 -116 -100 -125 0 -43 40 -83 84 -84 24 0
51 22 158 127 142 141 140 136 111 245 -9 37 -16 100 -16 153 2 267 187 499
449 561 133 31 306 6 421 -62 46 -27 113 -82 113 -93 0 -3 -27 -14 -60 -25
-80 -24 -202 -101 -274 -172 -97 -95 -174 -232 -207 -369 -18 -74 -15 -258 4
-331 10 -34 17 -65 17 -69 0 -4 -23 -4 -51 0 l-51 7 -216 -215 -217 -215 -105
-17 c-153 -24 -165 -34 -201 -188 l-23 -97 -65 0 c-47 0 -75 -6 -97 -19 -31
-19 -33 -23 -95 -199 -8 -19 -15 -22 -69 -22 -96 0 -112 -18 -155 -172 l-16
-58 -140 0 -139 0 0 137 0 138 385 385 c362 362 385 388 385 421 0 46 -33 79
-80 79 -32 0 -65 -30 -443 -408 l-408 -409 3 -216 3 -217 33 -32 32 -33 225
-3 225 -3 29 28 c20 20 34 53 51 116 l23 87 36 0 c51 0 105 17 125 39 10 11
32 59 50 108 l33 88 79 6 c43 3 86 9 96 13 21 9 31 37 62 159 13 54 26 101 29
103 3 3 38 10 79 15 130 17 128 16 343 229 l200 198 69 -9 69 -9 68 -72 c37
-40 94 -91 128 -113 l60 -40 1 -158 c0 -154 1 -158 25 -182 33 -33 70 -32 106
4 l29 29 0 184 c0 125 -4 191 -13 207 -6 13 -42 42 -79 65 -97 59 -150 107
-196 176 -120 178 -129 382 -28 585 142 285 447 398 737 274 27 -12 49 -27 49
-33 0 -11 -25 -56 -63 -112 l-20 -31 -51 26 c-43 22 -63 26 -141 26 -75 0 -97
-4 -134 -23 -186 -99 -227 -335 -85 -492 65 -72 182 -110 277 -90 122 25 212
111 244 232 15 58 15 74 4 131 l-13 65 37 47 c20 27 45 65 56 87 22 43 26 45
46 21 91 -112 132 -217 140 -353 6 -117 -12 -203 -63 -301 -47 -88 -98 -146
-193 -218 l-76 -57 -3 -303 -2 -304 -66 -88 c-90 -121 -91 -134 -20 -253 31
-52 56 -98 56 -101 0 -4 -20 -29 -44 -56 -65 -72 -66 -91 -14 -208 l45 -98
-44 -46 c-58 -62 -58 -93 2 -203 l45 -83 -97 -94 -97 -95 -98 91 -98 90 0 530
0 529 -29 29 c-36 36 -73 37 -106 4 l-25 -24 0 -564 0 -564 149 -146 c211
-207 202 -207 429 17 170 169 170 168 96 304 l-46 84 41 42 c61 62 62 90 8
202 l-45 92 54 53 c79 78 79 89 0 220 l-66 110 54 72 c30 40 59 85 65 100 7
18 11 132 11 302 l0 273 69 55 c161 130 257 321 268 532 12 208 -57 399 -197
549 l-59 62 22 80 c19 70 22 103 21 279 -1 182 -3 209 -26 296 -56 207 -124
337 -237 450 -107 106 -204 149 -336 148 -33 0 -80 -6 -105 -13z m223 -1555
c24 -9 8 -23 -46 -40 -20 -7 -42 -21 -47 -31 -16 -31 -12 -78 10 -100 31 -31
70 -30 149 6 l54 24 -7 -32 c-19 -100 -130 -155 -222 -112 -41 20 -84 87 -84
133 0 101 108 186 193 152z"/>
</g>
</svg>
