<?xml version="1.0" standalone="no"?>
<!DOCTYPE svg PUBLIC "-//W3C//DTD SVG 20010904//EN"
 "http://www.w3.org/TR/2001/REC-SVG-20010904/DTD/svg10.dtd">
<svg version="1.0" xmlns="http://www.w3.org/2000/svg"
 width="512.000000pt" height="512.000000pt" viewBox="0 0 512.000000 512.000000"
 preserveAspectRatio="xMidYMid meet">

<g transform="translate(0.000000,512.000000) scale(0.100000,-0.100000)"
fill="#000000" stroke="none">
<path d="M2055 5109 c-934 -46 -1429 -236 -1709 -657 -244 -367 -346 -923
-346 -1892 0 -969 102 -1525 346 -1892 232 -348 612 -537 1244 -617 293 -37
469 -46 970 -46 828 0 1257 54 1633 204 247 98 446 257 583 461 183 276 279
640 326 1240 17 221 17 1079 0 1300 -47 603 -142 963 -328 1242 -247 371 -664
563 -1376 633 -341 33 -937 44 -1343 24z m1200 -438 c1075 -103 1320 -350
1417 -1431 9 -97 13 -320 13 -680 0 -360 -4 -583 -13 -680 -98 -1084 -348
-1334 -1432 -1432 -199 -18 -1161 -18 -1360 0 -1084 98 -1334 348 -1432 1432
-18 199 -18 1161 0 1360 76 841 249 1150 732 1309 215 70 453 106 900 135 117
7 1071 -3 1175 -13z"/>
<path d="M1525 3394 c-155 -34 -311 -122 -422 -235 -81 -83 -120 -138 -166
-235 -59 -127 -79 -219 -79 -364 0 -155 21 -242 92 -387 112 -226 336 -397
589 -448 111 -23 294 -16 399 14 268 77 499 299 578 554 l18 57 225 -2 226 -3
5 -140 c5 -151 13 -176 67 -227 80 -76 206 -76 286 0 54 51 62 76 67 227 l5
140 213 3 212 2 0 -235 c0 -256 4 -282 58 -338 48 -51 97 -70 168 -65 78 5
136 41 174 108 l25 45 0 375 c0 365 -1 376 -22 415 -27 50 -58 80 -105 100
-33 13 -136 15 -821 15 l-783 0 -22 68 c-83 255 -316 473 -587 548 -86 24
-309 28 -400 8z m266 -418 c87 -19 141 -47 206 -108 90 -86 133 -185 133 -308
0 -124 -43 -222 -135 -309 -168 -159 -422 -155 -588 10 -168 168 -168 431 0
598 64 63 129 99 213 117 73 16 93 16 171 0z"/>
</g>
</svg>
