<?xml version="1.0" standalone="no"?>
<!DOCTYPE svg PUBLIC "-//W3C//DTD SVG 20010904//EN"
 "http://www.w3.org/TR/2001/REC-SVG-20010904/DTD/svg10.dtd">
<svg version="1.0" xmlns="http://www.w3.org/2000/svg"
 width="512.000000pt" height="512.000000pt" viewBox="0 0 512.000000 512.000000"
 preserveAspectRatio="xMidYMid meet">

<g transform="translate(0.000000,512.000000) scale(0.100000,-0.100000)"
fill="#000000" stroke="none">
<path d="M4387 3222 c-51 -51 -144 -173 -280 -367 l-204 -290 175 -3 174 -2
-6 -83 c-41 -510 -247 -916 -626 -1229 -189 -157 -476 -292 -720 -342 -241
-49 -531 -42 -757 17 l-52 14 -151 -152 -152 -153 53 -20 c449 -168 954 -172
1415 -11 193 66 453 212 608 340 455 374 720 883 768 1472 l11 147 169 0 c92
0 168 2 168 5 0 6 -494 712 -509 727 -4 4 -41 -27 -84 -70z"/>
<path d="M3210 2042 l-155 -157 3 -92 3 -93 89 0 90 0 0 -90 0 -90 180 0 180
0 0 223 0 222 -118 118 -117 117 -155 -158z"/>
</g>
</svg>
