<?xml version="1.0" standalone="no"?>
<!DOCTYPE svg PUBLIC "-//W3C//DTD SVG 20010904//EN"
 "http://www.w3.org/TR/2001/REC-SVG-20010904/DTD/svg10.dtd">
<svg version="1.0" xmlns="http://www.w3.org/2000/svg"
 width="512.000000pt" height="512.000000pt" viewBox="0 0 512.000000 512.000000"
 preserveAspectRatio="xMidYMid meet">

<g transform="translate(0.000000,512.000000) scale(0.100000,-0.100000)"
fill="#000000" stroke="none">
<path d="M1260 5105 c-200 -28 -411 -113 -582 -235 -106 -75 -256 -229 -322
-329 -95 -143 -167 -313 -203 -481 -23 -107 -25 -389 -4 -495 34 -175 107
-349 209 -505 68 -103 229 -266 333 -337 76 -52 246 -143 268 -143 8 0 11
-268 11 -1047 l1 -1048 237 -243 237 -244 238 245 237 245 0 149 0 148 -110
155 c-61 84 -108 160 -105 168 3 7 55 83 116 168 69 97 109 161 105 170 -3 9
-55 84 -116 169 -60 84 -110 156 -110 160 0 4 49 76 110 160 l110 153 0 246
c0 178 3 246 11 246 22 0 192 91 268 143 104 71 265 234 333 337 102 156 175
330 209 505 21 106 19 388 -4 495 -54 253 -169 470 -345 652 -298 308 -711
451 -1132 393z m415 -160 c366 -77 669 -315 826 -650 138 -294 145 -647 19
-945 -145 -341 -430 -584 -800 -682 -47 -12 -124 -22 -207 -25 l-133 -6 0 -51
c0 -28 -3 -61 -6 -73 -6 -22 -4 -23 65 -23 l71 0 0 -155 0 -155 75 0 75 0 0
159 c0 88 3 162 8 164 4 3 28 8 55 12 l47 7 0 -193 -1 -194 -128 -180 c-71
-99 -126 -184 -122 -190 109 -145 231 -328 225 -338 -5 -6 -59 -83 -121 -169
l-113 -158 130 -181 130 -182 0 -96 0 -97 -65 -64 -65 -64 0 82 0 82 -75 0
-75 0 0 -157 c-1 -140 -3 -161 -19 -181 -11 -12 -21 -22 -23 -22 -2 0 -77 73
-166 162 l-162 163 0 1066 0 1066 -95 37 c-356 141 -614 432 -709 797 l-24 94
174 3 174 2 0 75 0 75 -180 0 -180 0 0 74 c0 145 50 348 121 488 121 240 338
445 580 550 78 33 189 68 218 68 7 0 11 -21 11 -55 l0 -55 75 0 75 0 0 71 0
72 118 -6 c64 -2 153 -12 197 -22z"/>
<path d="M1339 4686 c-151 -58 -234 -154 -260 -304 -27 -154 63 -322 209 -390
50 -24 70 -27 157 -27 87 0 107 3 157 27 151 70 240 246 208 405 -26 122 -97
214 -210 267 -53 25 -79 31 -145 33 -49 2 -94 -3 -116 -11z m189 -151 c91 -38
153 -145 138 -239 -10 -58 -48 -117 -97 -152 -38 -26 -50 -29 -123 -29 -72 0
-85 3 -120 27 -52 36 -93 98 -101 153 -15 95 45 200 135 239 46 20 121 20 168
1z"/>
<path d="M2051 4564 l-43 -55 78 -79 79 -78 57 41 c32 23 57 45 58 48 0 9
-169 179 -178 179 -4 0 -27 -25 -51 -56z"/>
<path d="M2273 4305 c-29 -19 -53 -37 -53 -40 0 -3 11 -28 25 -55 66 -131 96
-256 96 -405 0 -205 -46 -352 -162 -521 -27 -39 -49 -73 -49 -76 0 -3 24 -26
53 -51 l54 -46 36 47 c249 327 290 758 106 1125 -16 31 -35 57 -42 56 -6 0
-36 -15 -64 -34z"/>
<path d="M940 3575 l0 -75 105 0 106 0 -3 73 -3 72 -102 3 -103 3 0 -76z"/>
<path d="M1250 3575 l0 -75 350 0 350 0 0 75 0 75 -350 0 -350 0 0 -75z"/>
<path d="M1062 3288 l3 -73 238 -3 237 -2 0 75 0 75 -240 0 -241 0 3 -72z"/>
<path d="M1640 3285 l0 -75 100 0 100 0 0 75 0 75 -100 0 -100 0 0 -75z"/>
<path d="M1227 2443 c-4 -3 -7 -53 -7 -110 l0 -103 75 0 75 0 0 110 0 110 -68
0 c-38 0 -72 -3 -75 -7z"/>
<path d="M1220 1335 l0 -815 75 0 75 0 0 815 0 815 -75 0 -75 0 0 -815z"/>
<path d="M2920 4125 l0 -395 75 0 75 0 0 395 0 395 -75 0 -75 0 0 -395z"/>
<path d="M3290 4125 l0 -395 75 0 75 0 0 395 0 395 -75 0 -75 0 0 -395z"/>
<path d="M3650 4120 l0 -400 305 0 305 0 0 400 0 400 -305 0 -305 0 0 -400z
m460 0 l0 -250 -155 0 -155 0 0 250 0 250 155 0 155 0 0 -250z"/>
<path d="M4380 4120 l0 -400 305 0 305 0 0 400 0 400 -305 0 -305 0 0 -400z
m460 0 l0 -250 -155 0 -155 0 0 250 0 250 155 0 155 0 0 -250z"/>
<path d="M2920 3105 l0 -405 305 0 305 0 0 405 0 405 -305 0 -305 0 0 -405z
m460 5 l0 -250 -155 0 -155 0 0 250 0 250 155 0 155 0 0 -250z"/>
<path d="M4380 3105 l0 -405 305 0 305 0 0 405 0 405 -305 0 -305 0 0 -405z
m460 5 l0 -250 -155 0 -155 0 0 250 0 250 155 0 155 0 0 -250z"/>
<path d="M3680 3105 l0 -395 75 0 75 0 0 395 0 395 -75 0 -75 0 0 -395z"/>
<path d="M4090 3105 l0 -395 75 0 75 0 0 395 0 395 -75 0 -75 0 0 -395z"/>
<path d="M2167 2483 c-4 -3 -7 -183 -7 -400 l0 -393 310 0 310 0 0 400 0 400
-303 0 c-167 0 -307 -3 -310 -7z m463 -393 l0 -250 -155 0 -155 0 0 250 0 250
155 0 155 0 0 -250z"/>
<path d="M4380 2090 l0 -400 305 0 305 0 0 400 0 400 -305 0 -305 0 0 -400z
m460 0 l0 -250 -155 0 -155 0 0 250 0 250 155 0 155 0 0 -250z"/>
<path d="M2920 2085 l0 -395 75 0 75 0 0 395 0 395 -75 0 -75 0 0 -395z"/>
<path d="M3310 2085 l0 -395 75 0 75 0 0 395 0 395 -75 0 -75 0 0 -395z"/>
<path d="M3710 2085 l0 -395 75 0 75 0 0 395 0 395 -75 0 -75 0 0 -395z"/>
<path d="M4110 2085 l0 -395 75 0 75 0 0 395 0 395 -75 0 -75 0 0 -395z"/>
<path d="M2165 1458 c-3 -7 -4 -186 -3 -398 l3 -385 75 0 75 0 0 395 0 395
-73 3 c-52 2 -74 -1 -77 -10z"/>
<path d="M2630 1070 l0 -400 75 0 75 0 0 400 0 400 -75 0 -75 0 0 -400z"/>
<path d="M2920 1070 l0 -400 305 0 305 0 0 400 0 400 -305 0 -305 0 0 -400z
m460 0 l0 -250 -155 0 -155 0 0 250 0 250 155 0 155 0 0 -250z"/>
<path d="M3717 1463 c-4 -3 -7 -183 -7 -400 l0 -393 75 0 75 0 0 400 0 400
-68 0 c-38 0 -72 -3 -75 -7z"/>
<path d="M4090 1070 l0 -400 75 0 75 0 0 400 0 400 -75 0 -75 0 0 -400z"/>
<path d="M4470 1070 l0 -400 75 0 75 0 -2 398 -3 397 -72 3 -73 3 0 -401z"/>
<path d="M4847 1463 c-4 -3 -7 -183 -7 -400 l0 -393 75 0 75 0 0 400 0 400
-68 0 c-38 0 -72 -3 -75 -7z"/>
</g>
</svg>
