<?xml version="1.0" standalone="no"?>
<!DOCTYPE svg PUBLIC "-//W3C//DTD SVG 20010904//EN"
 "http://www.w3.org/TR/2001/REC-SVG-20010904/DTD/svg10.dtd">
<svg version="1.0" xmlns="http://www.w3.org/2000/svg"
 width="512.000000pt" height="512.000000pt" viewBox="0 0 512.000000 512.000000"
 preserveAspectRatio="xMidYMid meet">

<g transform="translate(0.000000,512.000000) scale(0.100000,-0.100000)"
fill="#000000" stroke="none">
<path d="M804 4221 c-81 -37 -133 -135 -120 -225 13 -86 86 -159 175 -176 74
-14 3328 -14 3402 0 89 17 162 90 175 176 13 91 -36 183 -119 223 l-43 21
-1715 0 c-1646 0 -1716 -1 -1755 -19z"/>
<path d="M799 2750 c-70 -37 -119 -115 -119 -190 0 -78 53 -159 125 -191 38
-18 118 -19 1755 -19 l1716 0 44 23 c88 45 136 144 112 235 -17 61 -57 111
-112 140 l-44 22 -1721 0 c-1671 -1 -1721 -1 -1756 -20z"/>
<path d="M851 1299 c-80 -16 -154 -94 -167 -175 -13 -91 36 -183 119 -223 l43
-21 1714 0 1714 0 43 21 c185 89 147 360 -56 399 -67 13 -3345 12 -3410 -1z"/>
</g>
</svg>
