<?xml version="1.0" standalone="no"?>
<!DOCTYPE svg PUBLIC "-//W3C//DTD SVG 20010904//EN"
 "http://www.w3.org/TR/2001/REC-SVG-20010904/DTD/svg10.dtd">
<svg version="1.0" xmlns="http://www.w3.org/2000/svg"
 width="512.000000pt" height="512.000000pt" viewBox="0 0 512.000000 512.000000"
 preserveAspectRatio="xMidYMid meet">

<g transform="translate(0.000000,512.000000) scale(0.100000,-0.100000)"
fill="#000000" stroke="none">
<path d="M1200 4828 c-58 -40 -74 -71 -78 -152 l-4 -73 -86 -22 c-213 -54
-362 -148 -467 -296 -126 -176 -169 -369 -185 -820 -12 -338 -12 -1695 0
-2030 18 -513 76 -711 260 -895 100 -100 166 -141 298 -186 196 -67 392 -84
953 -84 394 0 396 0 429 22 47 32 71 68 77 116 7 55 -26 123 -75 154 -37 23
-39 23 -522 29 -592 8 -686 19 -843 102 -147 77 -216 220 -248 517 -20 177
-20 2309 -1 2480 39 350 121 489 327 560 77 27 82 26 89 -15 4 -19 18 -48 33
-65 94 -112 266 -58 281 88 l4 50 46 6 c24 3 193 6 373 6 l329 0 0 -46 c0 -96
54 -155 149 -162 46 -3 62 0 90 20 46 30 70 74 78 137 l6 51 322 0 c177 0 343
-3 367 -6 46 -6 46 -7 52 -53 12 -91 73 -151 154 -151 84 0 147 50 159 126 6
35 7 36 41 31 58 -10 159 -63 212 -113 142 -133 180 -356 180 -1059 0 -320 2
-354 19 -391 53 -117 224 -117 280 0 20 40 21 59 21 382 0 603 -25 842 -107
1044 -96 235 -294 395 -565 455 l-78 17 0 65 c0 116 -48 174 -149 181 -46 3
-62 0 -90 -20 -47 -31 -71 -76 -78 -144 l-6 -57 -60 7 c-33 3 -198 6 -367 6
l-307 0 -6 51 c-8 63 -32 107 -78 137 -28 20 -44 23 -90 20 -95 -7 -149 -66
-149 -162 l0 -46 -307 0 c-170 0 -338 -3 -374 -6 l-66 -7 -5 62 c-7 98 -69
161 -158 161 -32 0 -57 -7 -80 -22z"/>
<path d="M1446 3140 c-42 -13 -95 -68 -107 -112 -18 -68 19 -151 81 -183 25
-13 154 -15 928 -15 l899 0 33 23 c47 31 71 67 77 115 7 55 -26 123 -75 154
l-37 23 -885 2 c-487 1 -898 -2 -914 -7z"/>
<path d="M3968 2271 c-31 -10 -79 -31 -105 -46 -52 -30 -870 -837 -929 -916
-84 -114 -112 -202 -175 -534 -45 -241 -47 -301 -10 -372 26 -51 89 -106 140
-121 52 -16 146 -15 229 3 38 8 134 26 213 40 170 31 300 72 383 122 45 26
179 153 492 467 238 237 446 453 463 480 92 146 101 319 24 475 -29 61 -58 97
-157 197 -134 135 -190 175 -285 204 -81 26 -205 26 -283 1z m222 -322 c19
-12 77 -64 127 -116 100 -102 120 -140 107 -211 -5 -32 -59 -90 -433 -465
-234 -236 -442 -437 -461 -447 -19 -10 -59 -25 -89 -34 -56 -16 -382 -79 -386
-74 -5 6 65 364 80 407 8 24 26 62 39 85 30 51 832 851 866 865 44 17 112 13
150 -10z"/>
<path d="M1424 2061 c-117 -53 -117 -224 0 -280 41 -20 57 -21 497 -21 421 0
457 2 495 19 117 53 117 229 0 282 -38 17 -74 19 -496 19 -422 0 -458 -2 -496
-19z"/>
</g>
</svg>
