<?xml version="1.0" standalone="no"?>
<!DOCTYPE svg PUBLIC "-//W3C//DTD SVG 20010904//EN"
 "http://www.w3.org/TR/2001/REC-SVG-20010904/DTD/svg10.dtd">
<svg version="1.0" xmlns="http://www.w3.org/2000/svg"
 width="512.000000pt" height="512.000000pt" viewBox="0 0 512.000000 512.000000"
 preserveAspectRatio="xMidYMid meet">

<g transform="translate(0.000000,512.000000) scale(0.100000,-0.100000)"
fill="#000000" stroke="none">
<path d="M2325 5030 c-613 -68 -1137 -322 -1550 -751 -378 -392 -598 -853
-677 -1414 -17 -119 -16 -493 1 -615 103 -740 486 -1353 1100 -1762 818 -543
1904 -543 2722 0 703 468 1119 1238 1119 2072 0 670 -273 1313 -756 1780 -384
371 -842 596 -1379 676 -120 18 -468 26 -580 14z m-182 -227 c-236 -190 -470
-455 -627 -705 l-48 -77 -106 38 c-196 71 -395 166 -389 186 7 22 180 161 297
240 253 169 515 280 810 345 124 27 128 26 63 -27z m337 -445 l0 -491 -147 6
c-82 4 -202 14 -268 22 -120 16 -410 71 -426 81 -10 6 80 142 182 274 93 120
271 304 386 398 75 62 262 201 271 202 1 0 2 -221 2 -492z m370 341 c122 -93
355 -327 449 -449 103 -133 192 -268 182 -274 -16 -10 -306 -65 -426 -81 -66
-8 -186 -18 -267 -22 l-148 -6 0 492 0 492 58 -39 c31 -22 100 -72 152 -113z
m270 111 c364 -91 725 -282 981 -519 52 -48 53 -50 34 -65 -31 -24 -259 -125
-377 -167 l-106 -38 -48 77 c-157 251 -393 517 -628 706 l-61 48 45 -7 c25 -3
97 -19 160 -35z m-2140 -759 c107 -55 273 -125 375 -159 17 -5 29 -15 27 -23
-2 -8 -25 -62 -53 -122 -27 -59 -63 -148 -80 -197 l-32 -90 -156 0 c-129 0
-163 -4 -196 -19 -134 -61 -238 -337 -261 -695 l-7 -106 -179 0 -179 0 6 73
c46 523 219 952 540 1337 32 39 61 69 64 68 3 -2 62 -32 131 -67z m3341 17
c324 -378 509 -832 554 -1355 l6 -73 -179 0 -179 0 -7 103 c-18 281 -91 533
-187 642 -58 65 -91 75 -270 75 l-156 0 -32 90 c-17 49 -53 138 -80 197 -28
60 -51 114 -53 121 -2 9 29 25 87 46 133 49 228 90 340 150 55 29 103 54 106
55 3 0 25 -23 50 -51z m-2649 -262 c203 -48 444 -81 677 -92 l131 -7 0 -124 0
-123 -545 0 c-300 0 -545 4 -545 8 0 35 149 362 165 362 7 0 60 -11 117 -24z
m1957 -90 c55 -122 101 -234 101 -248 0 -4 -245 -8 -545 -8 l-545 0 0 123 0
124 135 7 c232 11 558 57 710 100 91 26 87 29 144 -98z m338 -433 c-3 -10 -17
-49 -31 -86 -39 -103 -74 -293 -87 -474 -20 -274 17 -616 87 -800 14 -37 28
-76 31 -86 5 -16 -70 -17 -1518 -15 l-1523 3 -31 41 c-38 49 -87 194 -110 324
-23 128 -32 482 -15 621 24 210 74 383 131 452 l30 37 1521 0 c1443 0 1520 -1
1515 -17z m259 -30 c37 -48 86 -194 109 -323 22 -127 31 -463 16 -610 -23
-218 -75 -396 -135 -467 -33 -37 -34 -37 -53 -20 -50 44 -110 220 -139 404
-24 149 -24 497 0 646 28 177 84 344 134 400 20 23 31 19 68 -30z m-3622 -879
c23 -358 127 -634 261 -695 33 -15 67 -19 196 -19 l155 0 38 -102 c21 -57 60
-150 87 -207 27 -57 47 -107 44 -111 -3 -4 -17 -11 -32 -15 -63 -15 -263 -99
-381 -160 l-127 -65 -33 38 c-18 20 -64 78 -102 127 -271 357 -424 765 -465
1243 l-6 72 179 0 179 0 7 -106z m4271 34 c-43 -505 -210 -928 -514 -1306 -46
-57 -86 -102 -90 -100 -3 2 -62 32 -131 67 -117 60 -311 141 -373 156 -15 4
-29 11 -32 15 -3 4 17 54 44 111 27 57 66 150 87 207 l38 102 155 0 c129 0
163 4 196 19 134 60 238 339 261 698 l7 103 179 0 179 0 -6 -72z m-2395 -873
l0 -125 -59 0 c-172 0 -518 -43 -725 -90 -72 -17 -135 -30 -142 -30 -15 0
-164 332 -164 365 0 3 245 5 545 5 l545 0 0 -125z m1250 120 c0 -12 -56 -151
-102 -252 -31 -69 -56 -113 -65 -113 -8 0 -49 9 -91 19 -185 47 -463 86 -697
97 l-135 7 0 124 0 123 545 0 c300 0 545 -2 545 -5z m-1250 -896 l0 -490 -72
50 c-267 185 -519 439 -708 717 -53 78 -71 114 -55 114 3 0 71 13 152 30 215
43 408 65 581 68 l102 2 0 -491z m575 466 c66 -9 186 -29 268 -45 81 -17 149
-30 152 -30 24 0 -54 -124 -182 -289 -136 -175 -398 -418 -595 -553 l-58 -39
0 492 0 492 148 -6 c81 -4 201 -14 267 -22z m-1502 -255 c148 -226 354 -458
555 -623 51 -42 89 -77 83 -77 -25 0 -208 43 -298 70 -263 78 -517 208 -740
378 -93 71 -183 151 -183 162 0 25 485 230 501 212 3 -4 40 -59 82 -122z
m2367 28 c115 -49 230 -108 230 -118 0 -11 -91 -92 -180 -160 -282 -215 -598
-360 -939 -431 -51 -10 -98 -19 -103 -19 -6 0 28 30 74 67 195 157 416 405
570 640 l81 122 86 -31 c47 -16 129 -48 181 -70z"/>
<path d="M1538 3146 c-49 -23 -326 -215 -332 -231 -12 -33 -6 -72 16 -92 58
-53 323 -223 347 -223 57 0 93 56 71 109 -6 14 -30 40 -53 56 l-42 30 908 5
909 5 19 24 c33 41 24 93 -22 116 -24 13 -158 15 -921 16 -841 0 -892 1 -868
17 79 53 97 97 60 144 -23 30 -59 39 -92 24z"/>
<path d="M2975 2495 c-47 -46 -32 -91 50 -152 l30 -22 -906 0 -906 -1 -21 -23
c-22 -23 -28 -60 -16 -92 18 -45 8 -45 956 -46 841 0 892 -1 868 -17 -79 -53
-97 -97 -59 -146 38 -49 72 -38 240 75 170 114 189 132 189 170 0 40 -21 59
-190 174 -168 114 -193 123 -235 80z"/>
</g>
</svg>
