<?xml version="1.0" standalone="no"?>
<!DOCTYPE svg PUBLIC "-//W3C//DTD SVG 20010904//EN"
 "http://www.w3.org/TR/2001/REC-SVG-20010904/DTD/svg10.dtd">
<svg version="1.0" xmlns="http://www.w3.org/2000/svg"
 width="512.000000pt" height="512.000000pt" viewBox="0 0 512.000000 512.000000"
 preserveAspectRatio="xMidYMid meet">

<g transform="translate(0.000000,512.000000) scale(0.100000,-0.100000)"
fill="#000000" stroke="none">
<path d="M1999 4810 c-463 -34 -930 -268 -1234 -618 -578 -664 -615 -1624 -88
-2323 265 -352 668 -608 1093 -693 409 -82 831 -26 1201 160 83 41 262 156
324 208 l30 25 610 -609 c539 -537 614 -609 648 -615 53 -10 101 2 138 32 59
50 74 124 40 191 -11 20 -287 304 -615 631 l-595 594 43 56 c124 161 224 347
291 540 104 301 123 651 55 980 -119 569 -530 1065 -1080 1302 -252 109 -571
160 -861 139z m401 -337 c196 -31 418 -121 600 -241 121 -80 319 -280 403
-407 112 -170 184 -341 229 -542 18 -83 22 -130 22 -303 0 -228 -14 -324 -75
-497 -179 -509 -600 -879 -1132 -995 -146 -32 -466 -32 -607 -1 -471 105 -848
397 -1058 818 -304 610 -155 1363 359 1812 349 304 798 431 1259 356z"/>
<path d="M2101 4093 c-35 -7 -107 -84 -114 -122 -4 -19 -7 -291 -7 -605 l0
-572 23 -44 c33 -66 78 -93 148 -88 65 5 109 32 133 82 14 30 16 102 16 639
l0 604 -23 33 c-37 56 -111 86 -176 73z"/>
<path d="M2095 2371 c-97 -25 -167 -127 -150 -220 19 -100 86 -162 184 -169
86 -6 152 32 193 112 28 55 22 139 -15 195 -43 64 -137 101 -212 82z"/>
</g>
</svg>
