<?xml version="1.0" standalone="no"?>
<!DOCTYPE svg PUBLIC "-//W3C//DTD SVG 20010904//EN"
 "http://www.w3.org/TR/2001/REC-SVG-20010904/DTD/svg10.dtd">
<svg version="1.0" xmlns="http://www.w3.org/2000/svg"
 width="512.000000pt" height="512.000000pt" viewBox="0 0 512.000000 512.000000"
 preserveAspectRatio="xMidYMid meet">

<g transform="translate(0.000000,512.000000) scale(0.100000,-0.100000)"
fill="#000000" stroke="none">
<path d="M1033 4398 l-543 -543 0 -1332 c0 -1310 0 -1332 20 -1397 27 -87 103
-171 192 -212 l63 -29 813 -3 812 -3 0 -207 c0 -231 9 -283 62 -360 16 -24 48
-56 71 -73 83 -60 59 -59 993 -59 833 0 855 0 908 20 72 27 139 88 173 158
l28 57 3 670 c3 748 5 726 -67 821 -28 37 -54 57 -108 84 l-72 35 -1 325 c0
377 -10 447 -79 595 -138 295 -397 477 -723 510 l-67 7 -3 606 -3 607 -28 57
c-37 75 -99 138 -172 174 l-60 29 -835 3 -834 2 -543 -542z m2222 357 c32 -20
56 -45 72 -74 l23 -44 0 -598 0 -597 -52 -12 c-268 -65 -495 -267 -599 -534
-50 -129 -59 -215 -59 -560 l0 -311 -70 -33 c-53 -24 -80 -45 -110 -83 -67
-85 -70 -105 -70 -516 l0 -364 -793 3 -793 3 -49 26 c-35 18 -59 39 -80 74
l-30 48 0 1281 0 1281 390 5 390 5 57 28 c73 36 149 119 179 195 23 55 23 69
27 435 l3 377 758 -2 758 -3 48 -30z m-1748 -745 c-13 -25 -42 -58 -66 -75
l-43 -30 -321 -3 -322 -3 385 386 385 385 3 -307 c2 -305 2 -308 -21 -353z
m2169 -726 c196 -41 386 -195 479 -389 62 -128 67 -165 72 -532 l5 -333 -101
0 -101 0 0 308 c0 338 -3 363 -62 474 -39 73 -133 167 -207 207 -197 105 -439
75 -601 -75 -74 -69 -116 -135 -146 -229 -23 -73 -24 -87 -24 -380 l0 -305
-101 0 -101 0 5 333 c4 271 8 344 22 397 76 290 332 510 623 538 91 9 142 6
238 -14z m-33 -384 c66 -25 147 -94 184 -157 46 -79 53 -134 53 -435 l0 -278
-370 0 -370 0 0 288 c0 324 5 358 67 449 95 141 271 194 436 133z m765 -1058
c70 -50 67 -20 70 -697 2 -335 0 -634 -3 -663 -8 -67 -57 -126 -115 -142 -26
-7 -323 -10 -874 -8 -829 3 -835 3 -863 24 -15 11 -38 36 -51 54 l-22 34 2
665 3 666 22 31 c48 67 -3 64 943 61 l855 -2 33 -23z"/>
<path d="M2242 4526 c-59 -19 -107 -58 -139 -114 -27 -45 -28 -52 -28 -187 0
-125 2 -144 22 -181 89 -167 320 -178 418 -20 29 47 30 55 33 180 4 152 -4
191 -55 247 -67 74 -164 103 -251 75z m129 -165 c28 -29 29 -32 29 -136 0
-104 -1 -107 -29 -136 -48 -48 -111 -36 -137 26 -18 44 -18 176 0 219 26 63
88 75 137 27z"/>
<path d="M2972 4523 c-34 -30 -122 -141 -132 -168 -19 -49 17 -95 74 -95 l26
0 0 -155 c0 -152 1 -156 25 -180 31 -32 74 -33 103 -2 21 23 22 30 22 299 l0
277 -26 20 c-33 26 -65 27 -92 4z"/>
<path d="M982 3619 c-52 -26 -105 -86 -120 -138 -17 -55 -16 -293 2 -335 71
-169 303 -202 413 -58 44 58 53 98 53 233 0 173 -32 243 -132 293 -67 34 -153
36 -216 5z m173 -171 c26 -31 27 -35 23 -140 -3 -96 -5 -110 -26 -130 -31 -31
-93 -31 -124 0 -20 20 -23 35 -26 118 -5 110 0 136 30 164 35 32 90 27 123
-12z"/>
<path d="M1641 3556 c-59 -69 -71 -90 -71 -119 0 -42 40 -81 77 -74 l23 4 0
-152 c0 -139 2 -155 21 -179 26 -33 79 -36 109 -6 19 19 20 34 21 283 1 144 1
269 0 277 -3 25 -41 50 -77 50 -29 0 -41 -10 -103 -84z"/>
<path d="M2269 3620 c-49 -9 -123 -54 -149 -89 -39 -55 -50 -107 -50 -230 0
-135 9 -175 53 -233 110 -144 342 -113 411 54 21 50 23 303 2 352 -42 102
-160 166 -267 146z m102 -169 c29 -29 29 -31 29 -146 0 -115 0 -117 -29 -146
-33 -32 -58 -36 -100 -14 -38 19 -51 60 -51 160 0 98 13 140 49 160 40 22 70
18 102 -14z"/>
<path d="M1708 2738 c-9 -7 -44 -46 -77 -86 -48 -59 -61 -81 -61 -108 0 -43
30 -74 70 -74 l30 0 0 -155 c0 -152 1 -156 25 -180 30 -30 64 -32 99 -4 l26
20 0 279 c0 274 0 280 -22 300 -25 23 -66 26 -90 8z"/>
<path d="M2332 2743 c-7 -3 -42 -41 -77 -85 -52 -63 -65 -87 -65 -114 0 -43
30 -74 70 -74 l30 0 0 -155 c0 -152 1 -156 25 -180 13 -14 36 -25 50 -25 14 0
37 11 50 25 l25 24 0 271 0 271 -25 24 c-23 24 -53 30 -83 18z"/>
<path d="M1082 2713 c-11 -10 -45 -50 -76 -89 -39 -50 -56 -80 -56 -101 0 -36
36 -73 72 -73 l27 0 3 -156 3 -156 28 -24 c37 -32 62 -30 98 6 l30 29 -3 272
-3 271 -24 19 c-29 24 -73 24 -99 2z"/>
<path d="M1030 1831 c-80 -26 -152 -95 -171 -164 -6 -22 -9 -100 -7 -177 3
-132 4 -138 33 -186 19 -30 49 -60 79 -79 44 -27 58 -30 125 -30 84 0 118 14
170 66 58 58 65 81 69 232 3 114 1 147 -13 184 -22 56 -67 108 -116 133 -43
22 -132 33 -169 21z m95 -163 c42 -19 55 -56 55 -158 0 -123 -21 -159 -90
-159 -70 0 -90 36 -90 161 0 102 11 135 50 155 31 16 42 16 75 1z"/>
<path d="M1663 1834 c-18 -8 -132 -149 -143 -178 -19 -50 17 -96 74 -96 l26 0
0 -155 c0 -152 1 -156 25 -180 30 -30 64 -32 99 -4 l26 20 0 279 0 279 -26 20
c-25 20 -55 25 -81 15z"/>
<path d="M3430 1626 c-163 -35 -281 -158 -312 -324 -22 -117 22 -253 110 -341
49 -49 121 -92 175 -105 l27 -6 0 -105 c0 -118 10 -148 53 -166 24 -10 34 -10
56 2 41 23 51 55 51 164 l0 100 48 17 c237 85 337 363 207 583 -79 136 -259
214 -415 181z m206 -182 c132 -81 153 -263 45 -375 -76 -78 -191 -96 -288 -45
-41 21 -90 75 -108 119 -20 48 -21 143 -2 188 57 136 228 191 353 113z"/>
</g>
</svg>
