<?xml version="1.0" standalone="no"?>
<!DOCTYPE svg PUBLIC "-//W3C//DTD SVG 20010904//EN"
 "http://www.w3.org/TR/2001/REC-SVG-20010904/DTD/svg10.dtd">
<svg version="1.0" xmlns="http://www.w3.org/2000/svg"
 width="512.000000pt" height="512.000000pt" viewBox="0 0 512.000000 512.000000"
 preserveAspectRatio="xMidYMid meet">

<g transform="translate(0.000000,512.000000) scale(0.100000,-0.100000)"
fill="#000000" stroke="none">
<path d="M130 4220 l0 -630 305 0 305 0 0 -200 0 -200 -305 0 -305 0 0 -630 0
-630 305 0 305 0 0 -200 0 -200 -305 0 -305 0 0 -630 0 -630 1963 2 1962 3 3
515 3 515 67 45 c97 66 236 185 321 276 276 295 447 645 518 1059 22 129 24
495 4 638 l-14 98 -76 -7 c-124 -13 -297 -7 -406 15 -124 24 -203 50 -322 106
l-93 44 -2 633 -3 633 -1962 3 -1963 2 0 -630z m3778 -2 l-3 -473 -32 -3 c-29
-3 -39 5 -113 90 -44 51 -98 119 -118 150 l-37 58 -86 0 -85 0 -50 -72 c-27
-40 -82 -108 -123 -150 l-74 -78 -1453 0 -1454 0 0 475 0 475 1815 0 1815 0
-2 -472z m-323 -413 c257 -336 681 -545 1112 -549 l131 -1 6 -35 c12 -71 6
-364 -9 -469 -100 -680 -534 -1231 -1171 -1485 -111 -44 -149 -45 -252 -7
-374 138 -713 416 -927 762 -203 328 -306 739 -275 1104 5 66 10 122 10 125 0
3 60 6 133 6 284 3 547 85 786 244 110 74 248 203 327 305 31 41 60 75 64 75
4 0 33 -34 65 -75z m-650 -245 c-193 -112 -482 -171 -734 -149 -62 6 -115 8
-117 6 -3 -3 -31 -189 -34 -224 0 -2 -261 -3 -580 -3 l-580 0 0 200 0 200
1048 0 1047 0 -50 -30z m-883 -650 c12 -238 60 -455 150 -675 27 -66 52 -128
55 -137 5 -17 -46 -18 -986 -18 l-991 0 0 480 0 480 883 -2 882 -3 7 -125z
m321 -1009 c40 -68 145 -200 224 -282 l86 -89 -897 0 -896 0 0 200 0 200 733
0 733 0 17 -29z m577 -576 c108 -71 270 -154 401 -205 137 -53 192 -54 327 -4
53 20 123 49 154 65 32 16 62 29 68 29 7 0 10 -129 10 -390 l0 -390 -1815 0
-1815 0 0 475 0 475 1293 0 1293 0 84 -55z"/>
<path d="M764 4600 c-196 -41 -332 -235 -304 -432 30 -212 236 -365 442 -328
91 17 161 55 223 122 72 78 99 146 99 258 0 121 -27 185 -113 271 -50 50 -81
71 -125 88 -68 25 -162 34 -222 21z m142 -155 c104 -31 164 -113 164 -225 0
-283 -399 -322 -461 -45 -25 110 49 235 158 269 62 19 79 19 139 1z"/>
<path d="M2970 4215 l0 -75 345 0 345 0 0 75 0 75 -345 0 -345 0 0 -75z"/>
<path d="M3387 3395 c-169 -46 -306 -179 -358 -344 -15 -48 -22 -102 -24 -200
-4 -126 -6 -136 -29 -160 -14 -14 -37 -53 -53 -86 -27 -59 -27 -64 -31 -290
-4 -253 5 -351 39 -423 32 -66 107 -136 176 -164 57 -23 65 -23 403 -23 379 0
406 3 484 59 59 42 101 96 126 162 18 50 20 77 20 334 0 315 -6 346 -76 429
l-36 42 1 118 c1 65 -3 140 -10 167 -43 180 -191 332 -370 379 -66 18 -197 18
-262 0z m278 -179 c73 -33 149 -106 182 -175 20 -43 28 -75 31 -141 l4 -85
-362 0 -362 0 4 85 c2 68 9 96 30 140 47 96 142 174 245 200 61 15 167 4 228
-24z m225 -576 c21 -11 51 -36 67 -57 l28 -36 3 -261 c2 -144 0 -276 -3 -294
-7 -38 -55 -96 -99 -120 -27 -15 -70 -17 -366 -17 -296 0 -339 2 -366 17 -44
24 -92 82 -99 120 -3 18 -5 150 -3 294 l3 261 28 36 c57 75 61 76 435 77 313
0 335 -1 372 -20z"/>
<path d="M3449 2517 c-121 -45 -189 -137 -191 -256 -2 -133 74 -240 196 -276
67 -20 115 -19 180 5 153 58 224 237 152 384 -46 93 -128 147 -236 153 -39 2
-79 -2 -101 -10z m151 -153 c59 -36 81 -130 42 -183 -49 -69 -139 -76 -199
-16 -29 29 -33 39 -33 85 0 47 4 56 39 91 33 33 45 39 81 39 23 0 54 -7 70
-16z"/>
<path d="M770 2939 c-119 -23 -226 -107 -279 -219 -23 -48 -26 -68 -26 -160 0
-93 3 -112 27 -162 71 -152 253 -248 411 -219 131 24 252 121 298 238 32 81
32 205 0 286 -45 114 -161 209 -289 236 -60 12 -78 12 -142 0z m120 -150 c152
-34 229 -209 151 -344 -107 -187 -381 -145 -431 66 -29 118 47 242 168 275 58
16 57 16 112 3z"/>
<path d="M762 1280 c-64 -14 -157 -67 -203 -117 -174 -189 -114 -504 115 -609
161 -74 332 -41 451 88 72 78 99 146 99 258 0 121 -27 185 -113 271 -50 50
-81 71 -125 88 -68 25 -162 34 -224 21z m144 -155 c103 -31 164 -113 164 -224
0 -135 -97 -230 -235 -231 -207 0 -308 248 -160 395 28 29 60 49 92 59 62 19
79 19 139 1z"/>
<path d="M2970 905 l0 -75 345 0 345 0 0 75 0 75 -345 0 -345 0 0 -75z"/>
</g>
</svg>
