<?xml version="1.0" standalone="no"?>
<!DOCTYPE svg PUBLIC "-//W3C//DTD SVG 20010904//EN"
 "http://www.w3.org/TR/2001/REC-SVG-20010904/DTD/svg10.dtd">
<svg version="1.0" xmlns="http://www.w3.org/2000/svg"
 width="512.000000pt" height="512.000000pt" viewBox="0 0 512.000000 512.000000"
 preserveAspectRatio="xMidYMid meet">

<g transform="translate(0.000000,512.000000) scale(0.100000,-0.100000)"
fill="#000000" stroke="none">
<path d="M2257 4429 c-627 -52 -1229 -337 -1679 -796 -59 -60 -112 -121 -117
-137 -40 -104 31 -216 138 -216 64 0 88 16 188 121 369 387 890 646 1428 709
140 17 426 14 570 -5 410 -54 808 -220 1134 -473 47 -36 147 -125 221 -198 74
-72 145 -136 157 -143 30 -15 98 -14 131 3 66 34 100 110 81 179 -25 90 -329
374 -569 529 -504 328 -1088 476 -1683 427z"/>
<path d="M2303 3699 c-363 -35 -699 -166 -995 -390 -107 -80 -305 -279 -323
-324 -39 -93 6 -188 103 -215 69 -19 104 0 226 124 170 171 317 274 519 363
209 92 407 133 649 133 460 0 864 -175 1185 -514 99 -106 140 -126 211 -107
53 15 102 68 109 119 11 82 -1 105 -110 219 -119 124 -206 196 -337 283 -361
238 -811 351 -1237 309z"/>
<path d="M2335 2969 c-270 -36 -516 -159 -704 -349 -139 -140 -165 -203 -119
-289 28 -52 76 -81 135 -81 62 0 82 13 172 111 128 138 262 223 428 271 104
30 352 33 452 5 191 -52 353 -155 465 -295 55 -69 95 -92 159 -92 82 0 147 68
147 155 0 54 -21 90 -106 183 -169 185 -392 311 -639 363 -108 23 -294 31
-390 18z"/>
<path d="M2373 2286 c-75 -19 -157 -63 -212 -116 -58 -56 -90 -104 -121 -185
-32 -82 -32 -223 -2 -307 57 -156 178 -266 334 -303 164 -38 321 6 439 124
147 148 180 362 83 553 -34 67 -125 158 -192 192 -102 52 -224 67 -329 42z
m194 -327 c34 -21 73 -90 73 -130 -1 -36 -34 -104 -61 -123 -68 -47 -152 -40
-209 18 -27 29 -34 45 -38 89 -11 136 119 217 235 146z"/>
<path d="M3415 2026 c-51 -23 -87 -69 -92 -120 -3 -24 -2 -57 1 -73 5 -18 85
-106 229 -250 l221 -223 -221 -222 c-144 -145 -224 -233 -229 -251 -10 -42 1
-111 22 -141 32 -43 97 -69 152 -61 45 7 56 16 272 231 l226 224 219 -220
c166 -167 229 -223 257 -232 121 -36 233 87 188 209 -6 15 -109 126 -228 246
l-217 217 217 218 c119 119 222 230 228 245 33 90 -23 195 -114 212 -76 15
-97 -1 -331 -235 l-219 -220 -226 224 c-179 178 -232 224 -259 230 -46 8 -61
7 -96 -8z"/>
</g>
</svg>
